Heebo-Regular.ufo
<glyph name="quotedbl" format="2">
  <advance width="657.5"/>
  <unicode hex="0022"/>
  <outline>
    <contour>
      <point x="278" y="1400" type="line"/>
      <point x="278" y="1536" type="line"/>
      <point x="137" y="1536" type="line"/>
      <point x="137" y="1391" type="line"/>
      <point x="136" y="1044" type="line"/>
      <point x="248" y="1044" type="line"/>
    </contour>
    <contour>
      <point x="549" y="1400" type="line"/>
      <point x="549" y="1536" type="line"/>
      <point x="408" y="1536" type="line"/>
      <point x="408" y="1398" type="line"/>
      <point x="407" y="1044" type="line"/>
      <point x="519" y="1044" type="line"/>
    </contour>
  </outline>
</glyph>
<glyph name="percent" format="2">
  <advance width="1499.7"/>
  <unicode hex="0025"/>
  <outline>
    <contour>
      <point x="105" y="1176" type="curve" smooth="yes"/>
      <point x="105" y="1099" type="line"/>
      <point x="105" y="936"/>
      <point x="218" y="800"/>
      <point x="405" y="800" type="curve" smooth="yes"/>
      <point x="591" y="800"/>
      <point x="703" y="936"/>
      <point x="703" y="1099" type="curve" smooth="yes"/>
      <point x="703" y="1176" type="line" smooth="yes"/>
      <point x="703" y="1341"/>
      <point x="591" y="1477"/>
      <point x="403" y="1477" type="curve" smooth="yes"/>
      <point x="218" y="1477"/>
      <point x="105" y="1341"/>
    </contour>
    <contour>
      <point x="245" y="1099" type="curve" smooth="yes"/>
      <point x="245" y="1176" type="line"/>
      <point x="245" y="1270"/>
      <point x="297" y="1357"/>
      <point x="403" y="1357" type="curve" smooth="yes"/>
      <point x="511" y="1357"/>
      <point x="563" y="1270"/>
      <point x="563" y="1176" type="curve" smooth="yes"/>
      <point x="563" y="1099" type="line" smooth="yes"/>
      <point x="563" y="1006"/>
      <point x="512" y="920"/>
      <point x="405" y="920" type="curve" smooth="yes"/>
      <point x="296" y="920"/>
      <point x="245" y="1007"/>
    </contour>
    <contour>
      <point x="814" y="357" type="curve" smooth="yes"/>
      <point x="814" y="279" type="line"/>
      <point x="814" y="115"/>
      <point x="927" y="-21"/>
      <point x="1114" y="-21" type="curve" smooth="yes"/>
      <point x="1299" y="-21"/>
      <point x="1411" y="115"/>
      <point x="1411" y="279" type="curve" smooth="yes"/>
      <point x="1411" y="357" type="line" smooth="yes"/>
      <point x="1411" y="521"/>
      <point x="1299" y="657"/>
      <point x="1112" y="657" type="curve" smooth="yes"/>
      <point x="927" y="657"/>
      <point x="814" y="521"/>
    </contour>
    <contour>
      <point x="953" y="279" type="curve" smooth="yes"/>
      <point x="953" y="357" type="line"/>
      <point x="953" y="451"/>
      <point x="1005" y="537"/>
      <point x="1112" y="537" type="curve" smooth="yes"/>
      <point x="1220" y="537"/>
      <point x="1272" y="451"/>
      <point x="1272" y="357" type="curve" smooth="yes"/>
      <point x="1272" y="279" type="line" smooth="yes"/>
      <point x="1272" y="185"/>
      <point x="1221" y="99"/>
      <point x="1114" y="99" type="curve" smooth="yes"/>
      <point x="1005" y="99"/>
      <point x="953" y="186"/>
    </contour>
    <contour>
      <point x="447" y="111" type="line"/>
      <point x="1158" y="1249" type="line"/>
      <point x="1053" y="1315" type="line"/>
      <point x="342" y="177" type="line"/>
    </contour>
  </outline>
</glyph>
<glyph name="quotesingle" format="2">
  <advance width="358.2"/>
  <unicode hex="0027"/>
  <outline>
    <contour>
      <point x="255" y="1425" type="line"/>
      <point x="255" y="1536" type="line"/>
      <point x="104" y="1536" type="line"/>
      <point x="104" y="1409" type="line"/>
      <point x="103" y="1058" type="line"/>
      <point x="233" y="1058" type="line"/>
    </contour>
  </outline>
</glyph>
<glyph name="parenleft" format="2">
  <advance width="701.64"/>
  <unicode hex="0028"/>
  <outline>
    <contour>
      <point x="133" y="591" type="curve"/>
      <point x="133" y="581" type="line"/>
      <point x="133" y="-1"/>
      <point x="435" y="-364"/>
      <point x="624" y="-470" type="curve"/>
      <point x="663" y="-359" type="line"/>
      <point x="507" y="-230"/>
      <point x="320" y="74"/>
      <point x="320" y="579" type="curve"/>
      <point x="320" y="594" type="line" smooth="yes"/>
      <point x="320" y="1099"/>
      <point x="507" y="1403"/>
      <point x="663" y="1522" type="curve"/>
      <point x="624" y="1643" type="line"/>
      <point x="435" y="1538"/>
      <point x="133" y="1172"/>
    </contour>
  </outline>
</glyph>
<glyph name="hyphen" format="2">
  <advance width="565.14"/>
  <unicode hex="002D"/>
  <outline>
    <contour>
      <point x="526" y="544" type="line"/>
      <point x="526" y="695" type="line"/>
      <point x="37" y="695" type="line"/>
      <point x="37" y="544" type="line"/>
    </contour>
  </outline>
</glyph>
<glyph name="period" format="2">
  <advance width="540.92"/>
  <unicode hex="002E"/>
  <outline>
    <contour>
      <point x="144" y="160"/>
      <point x="144" y="97" type="curve" smooth="yes"/>
      <point x="144" y="36"/>
      <point x="184" y="-11"/>
      <point x="259" y="-11" type="curve" smooth="yes"/>
      <point x="335" y="-11"/>
      <point x="375" y="36"/>
      <point x="375" y="97" type="curve" smooth="yes"/>
      <point x="375" y="160"/>
      <point x="335" y="209"/>
      <point x="259" y="209" type="curve" smooth="yes"/>
      <point x="184" y="209"/>
    </contour>
  </outline>
</glyph>
<glyph name="slash" format="2">
  <advance width="845.7"/>
  <unicode hex="002F"/>
  <outline>
    <contour>
      <point x="178" y="-125" type="line"/>
      <point x="785" y="1456" type="line"/>
      <point x="626" y="1456" type="line"/>
      <point x="18" y="-125" type="line"/>
    </contour>
  </outline>
</glyph>
<glyph name="one" format="2">
  <advance width="1151.03"/>
  <unicode hex="0031"/>
  <outline>
    <contour>
      <point x="730" y="0" type="line"/>
      <point x="730" y="1464" type="line"/>
      <point x="701" y="1464" type="line"/>
      <point x="171" y="1265" type="line"/>
      <point x="171" y="1098" type="line"/>
      <point x="543" y="1235" type="line"/>
      <point x="543" y="0" type="line"/>
    </contour>
  </outline>
</glyph>
<glyph name="two" format="2">
  <advance width="1151.03"/>
  <unicode hex="0032"/>
  <outline>
    <contour>
      <point x="1076" y="0" type="line"/>
      <point x="1076" y="150" type="line"/>
      <point x="346" y="150" type="line"/>
      <point x="736" y="575" type="line" smooth="yes"/>
      <point x="885" y="737"/>
      <point x="1009" y="915"/>
      <point x="1009" y="1087" type="curve" smooth="yes"/>
      <point x="1009" y="1320"/>
      <point x="844" y="1476"/>
      <point x="570" y="1476" type="curve" smooth="yes"/>
      <point x="258" y="1476"/>
      <point x="93" y="1274"/>
      <point x="93" y="1028" type="curve"/>
      <point x="280" y="1028" type="line"/>
      <point x="280" y="1203"/>
      <point x="374" y="1326"/>
      <point x="570" y="1326" type="curve" smooth="yes"/>
      <point x="731" y="1326"/>
      <point x="822" y="1209"/>
      <point x="822" y="1065" type="curve" smooth="yes"/>
      <point x="822" y="951"/>
      <point x="775" y="859"/>
      <point x="598" y="663" type="curve" smooth="yes"/>
      <point x="121" y="132" type="line"/>
      <point x="121" y="0" type="line"/>
    </contour>
  </outline>
</glyph>
<glyph name="three" format="2">
  <advance width="1151.03"/>
  <unicode hex="0033"/>
  <outline>
    <contour>
      <point x="523" y="818" type="curve" smooth="yes"/>
      <point x="391" y="818" type="line"/>
      <point x="391" y="707" type="line"/>
      <point x="549" y="707" type="line" smooth="yes"/>
      <point x="866" y="707"/>
      <point x="996" y="916"/>
      <point x="996" y="1065" type="curve" smooth="yes"/>
      <point x="996" y="1335"/>
      <point x="819" y="1476"/>
      <point x="556" y="1476" type="curve" smooth="yes"/>
      <point x="286" y="1476"/>
      <point x="107" y="1298"/>
      <point x="107" y="1075" type="curve"/>
      <point x="294" y="1075" type="line"/>
      <point x="294" y="1228"/>
      <point x="400" y="1326"/>
      <point x="556" y="1326" type="curve" smooth="yes"/>
      <point x="726" y="1326"/>
      <point x="809" y="1235"/>
      <point x="809" y="1069" type="curve" smooth="yes"/>
      <point x="809" y="925"/>
      <point x="715" y="818"/>
    </contour>
    <contour>
      <point x="391" y="778" type="line"/>
      <point x="391" y="668" type="line"/>
      <point x="523" y="668" type="line" smooth="yes"/>
      <point x="710" y="668"/>
      <point x="831" y="584"/>
      <point x="831" y="402" type="curve" smooth="yes"/>
      <point x="831" y="220"/>
      <point x="726" y="130"/>
      <point x="557" y="130" type="curve" smooth="yes"/>
      <point x="387" y="130"/>
      <point x="282" y="232"/>
      <point x="282" y="385" type="curve"/>
      <point x="95" y="385" type="line"/>
      <point x="95" y="126"/>
      <point x="303" y="-20"/>
      <point x="557" y="-20" type="curve" smooth="yes"/>
      <point x="819" y="-20"/>
      <point x="1018" y="134"/>
      <point x="1018" y="406" type="curve" smooth="yes"/>
      <point x="1018" y="580"/>
      <point x="920" y="778"/>
      <point x="549" y="778" type="curve" smooth="yes"/>
    </contour>
  </outline>
</glyph>
<glyph name="four" format="2">
  <advance width="1151.03"/>
  <unicode hex="0034"/>
  <outline>
    <contour>
      <point x="1105" y="339" type="line"/>
      <point x="1105" y="489" type="line"/>
      <point x="264" y="489" type="line"/>
      <point x="694" y="1165" type="line"/>
      <point x="856" y="1456" type="line"/>
      <point x="704" y="1456" type="line"/>
      <point x="53" y="447" type="line"/>
      <point x="53" y="339" type="line"/>
    </contour>
    <contour>
      <point x="903" y="0" type="line"/>
      <point x="903" y="1456" type="line"/>
      <point x="716" y="1456" type="line"/>
      <point x="716" y="0" type="line"/>
    </contour>
  </outline>
</glyph>
<glyph name="five" format="2">
  <advance width="1151.03"/>
  <unicode hex="0035"/>
  <outline>
    <contour>
      <point x="206" y="731" type="line"/>
      <point x="356" y="693" type="line"/>
      <point x="422" y="751"/>
      <point x="469" y="786"/>
      <point x="593" y="786" type="curve"/>
      <point x="780" y="786"/>
      <point x="883" y="645"/>
      <point x="883" y="462" type="curve" smooth="yes"/>
      <point x="883" y="258"/>
      <point x="783" y="130"/>
      <point x="609" y="130" type="curve" smooth="yes"/>
      <point x="453" y="130"/>
      <point x="354" y="217"/>
      <point x="331" y="383" type="curve"/>
      <point x="154" y="383" type="line"/>
      <point x="179" y="111"/>
      <point x="373" y="-20"/>
      <point x="609" y="-20" type="curve" smooth="yes"/>
      <point x="920" y="-20"/>
      <point x="1070" y="185"/>
      <point x="1070" y="464" type="curve" smooth="yes"/>
      <point x="1070" y="761"/>
      <point x="905" y="951"/>
      <point x="637" y="951" type="curve"/>
      <point x="530" y="951"/>
      <point x="447" y="919"/>
      <point x="395" y="888" type="curve"/>
      <point x="438" y="1287" type="line"/>
      <point x="1027" y="1287" type="line"/>
      <point x="1027" y="1456" type="line"/>
      <point x="280" y="1456" type="line"/>
    </contour>
  </outline>
</glyph>
<glyph name="seven" format="2">
  <advance width="1151.03"/>
  <unicode hex="0037"/>
  <outline>
    <contour>
      <point x="1063" y="1353" type="line"/>
      <point x="1063" y="1456" type="line"/>
      <point x="78" y="1456" type="line"/>
      <point x="78" y="1306" type="line"/>
      <point x="865" y="1306" type="line"/>
      <point x="264" y="0" type="line"/>
      <point x="460" y="0" type="line"/>
    </contour>
  </outline>
</glyph>
<glyph name="nine" format="2">
  <advance width="1151.03"/>
  <unicode hex="0039"/>
  <outline>
    <contour>
      <point x="324" y="154" type="curve" smooth="yes"/>
      <point x="305" y="154" type="line"/>
      <point x="305" y="-2" type="line"/>
      <point x="324" y="-2" type="line" smooth="yes"/>
      <point x="930" y="-2"/>
      <point x="1017" y="440"/>
      <point x="1017" y="819" type="curve" smooth="yes"/>
      <point x="1017" y="888" type="line" smooth="yes"/>
      <point x="1017" y="1183"/>
      <point x="886" y="1476"/>
      <point x="552" y="1476" type="curve" smooth="yes"/>
      <point x="255" y="1476"/>
      <point x="100" y="1250"/>
      <point x="100" y="973" type="curve" smooth="yes"/>
      <point x="100" y="735"/>
      <point x="227" y="487"/>
      <point x="516" y="487" type="curve" smooth="yes"/>
      <point x="761" y="487"/>
      <point x="945" y="720"/>
      <point x="945" y="942" type="curve"/>
      <point x="856" y="942" type="line"/>
      <point x="845" y="785"/>
      <point x="709" y="639"/>
      <point x="546" y="639" type="curve" smooth="yes"/>
      <point x="368" y="639"/>
      <point x="283" y="810"/>
      <point x="283" y="983" type="curve" smooth="yes"/>
      <point x="283" y="1177"/>
      <point x="381" y="1324"/>
      <point x="552" y="1324" type="curve" smooth="yes"/>
      <point x="699" y="1324"/>
      <point x="831" y="1178"/>
      <point x="831" y="912" type="curve"/>
      <point x="831" y="689" type="line"/>
      <point x="831" y="419"/>
      <point x="751" y="154"/>
    </contour>
  </outline>
</glyph>
<glyph name="greater" format="2">
  <advance width="1071.2"/>
  <unicode hex="003E"/>
  <outline>
    <contour>
      <point x="135" y="910" type="line"/>
      <point x="846" y="632" type="line"/>
      <point x="989" y="606" type="line"/>
      <point x="989" y="721" type="line"/>
      <point x="135" y="1099" type="line"/>
    </contour>
    <contour>
      <point x="847" y="672" type="line"/>
      <point x="135" y="388" type="line"/>
      <point x="135" y="198" type="line"/>
      <point x="989" y="577" type="line"/>
      <point x="989" y="692" type="line"/>
    </contour>
  </outline>
</glyph>
<glyph name="at" format="2">
  <advance width="1838.3"/>
  <unicode hex="0040"/>
  <outline>
    <contour>
      <point x="1725" y="257"/>
      <point x="1735" y="503" type="curve"/>
      <point x="1758" y="1071"/>
      <point x="1481" y="1431"/>
      <point x="968" y="1431" type="curve" smooth="yes"/>
      <point x="466" y="1431"/>
      <point x="139" y="1026"/>
      <point x="115" y="478" type="curve" smooth="yes"/>
      <point x="92" y="-96"/>
      <point x="385" y="-453"/>
      <point x="892" y="-453" type="curve" smooth="yes"/>
      <point x="1017" y="-453"/>
      <point x="1172" y="-424"/>
      <point x="1265" y="-364" type="curve"/>
      <point x="1227" y="-251" type="line"/>
      <point x="1144" y="-299"/>
      <point x="1014" y="-329"/>
      <point x="896" y="-329" type="curve" smooth="yes"/>
      <point x="471" y="-329"/>
      <point x="238" y="-21"/>
      <point x="261" y="478" type="curve" smooth="yes"/>
      <point x="282" y="967"/>
      <point x="545" y="1300"/>
      <point x="964" y="1300" type="curve" smooth="yes"/>
      <point x="1428" y="1300"/>
      <point x="1628" y="1001"/>
      <point x="1605" y="503" type="curve" smooth="yes"/>
      <point x="1596" y="278"/>
      <point x="1508" y="98"/>
      <point x="1347" y="98" type="curve" smooth="yes"/>
      <point x="1282" y="98"/>
      <point x="1203" y="134"/>
      <point x="1220" y="329" type="curve"/>
      <point x="1271" y="883" type="line"/>
      <point x="1123" y="883" type="line"/>
      <point x="1072" y="329" type="line" smooth="yes"/>
      <point x="1051" y="116"/>
      <point x="1141" y="-21"/>
      <point x="1326" y="-21" type="curve"/>
      <point x="1616" y="-21"/>
    </contour>
    <contour>
      <point x="692" y="229"/>
      <point x="710" y="418" type="curve" smooth="yes"/>
      <point x="736" y="711"/>
      <point x="853" y="862"/>
      <point x="998" y="862" type="curve" smooth="yes"/>
      <point x="1084" y="862"/>
      <point x="1146" y="822"/>
      <point x="1186" y="786" type="curve"/>
      <point x="1271" y="883" type="line"/>
      <point x="1196" y="941"/>
      <point x="1127" y="990"/>
      <point x="982" y="990" type="curve" smooth="yes"/>
      <point x="777" y="990"/>
      <point x="581" y="769"/>
      <point x="550" y="418" type="curve" smooth="yes"/>
      <point x="526" y="155"/>
      <point x="622" y="-21"/>
      <point x="819" y="-21" type="curve" smooth="yes"/>
      <point x="957" y="-21"/>
      <point x="1096" y="94"/>
      <point x="1157" y="312" type="curve"/>
      <point x="1091" y="384" type="line"/>
      <point x="1042" y="195"/>
      <point x="943" y="122"/>
      <point x="865" y="122" type="curve" smooth="yes"/>
      <point x="748" y="122"/>
    </contour>
  </outline>
</glyph>
<glyph name="D" format="2">
  <advance width="1343.64"/>
  <unicode hex="0044"/>
  <anchor x="613" y="10" name="bottom"/>
  <anchor x="1344" y="-407" name="bottom_dd"/>
  <anchor x="322" y="738" name="cross"/>
  <anchor x="609" y="1612" name="top"/>
  <anchor x="1344" y="1612" name="top0315"/>
  <anchor x="1344" y="1600" name="top_dd"/>
  <outline>
    <contour>
      <point x="259" y="0" type="line"/>
      <point x="563" y="0" type="line"/>
      <point x="967" y="0"/>
      <point x="1223" y="263"/>
      <point x="1223" y="684" type="curve"/>
      <point x="1223" y="772" type="line"/>
      <point x="1223" y="1192"/>
      <point x="963" y="1456"/>
      <point x="580" y="1456" type="curve"/>
      <point x="253" y="1456" type="line"/>
      <point x="253" y="1299" type="line"/>
      <point x="580" y="1299" type="line"/>
      <point x="868" y="1299"/>
      <point x="1031" y="1107"/>
      <point x="1031" y="774" type="curve"/>
      <point x="1031" y="684" type="line" smooth="yes"/>
      <point x="1031" y="364"/>
      <point x="873" y="156"/>
      <point x="563" y="156" type="curve"/>
      <point x="261" y="156" type="line"/>
    </contour>
    <contour>
      <point x="363" y="0" type="line"/>
      <point x="363" y="1456" type="line"/>
      <point x="169" y="1456" type="line"/>
      <point x="169" y="0" type="line"/>
    </contour>
  </outline>
</glyph>
<glyph name="E" format="2">
  <advance width="1164.18"/>
  <unicode hex="0045"/>
  <anchor x="619" y="10" name="bottom"/>
  <anchor x="1164" y="-407" name="bottom_dd"/>
  <anchor x="1022" y="0" name="ogonek"/>
  <anchor x="-42" y="1455" name="tonos"/>
  <anchor x="619" y="1612" name="top"/>
  <anchor x="1164" y="1612" name="top0315"/>
  <anchor x="1164" y="1600" name="top_dd"/>
  <outline>
    <contour>
      <point x="1094" y="0" type="line"/>
      <point x="1094" y="156" type="line"/>
      <point x="325" y="156" type="line"/>
      <point x="325" y="0" type="line"/>
    </contour>
    <contour>
      <point x="363" y="0" type="line"/>
      <point x="363" y="1456" type="line"/>
      <point x="169" y="1456" type="line"/>
      <point x="169" y="0" type="line"/>
    </contour>
    <contour>
      <point x="992" y="674" type="line"/>
      <point x="992" y="830" type="line"/>
      <point x="325" y="830" type="line"/>
      <point x="325" y="674" type="line"/>
    </contour>
    <contour>
      <point x="1084" y="1299" type="line"/>
      <point x="1084" y="1456" type="line"/>
      <point x="325" y="1456" type="line"/>
      <point x="325" y="1299" type="line"/>
    </contour>
  </outline>
</glyph>
<glyph name="I" format="2">
  <advance width="557.66"/>
  <unicode hex="0049"/>
  <anchor x="279" y="9" name="bottom"/>
  <anchor x="558" y="-407" name="bottom_dd"/>
  <anchor x="342" y="0" name="ogonek"/>
  <anchor x="372" y="0" name="right"/>
  <anchor x="-22" y="1456" name="tonos"/>
  <anchor x="279" y="1612" name="top"/>
  <anchor x="558" y="1612" name="top0315"/>
  <anchor x="558" y="1600" name="top_dd"/>
  <outline>
    <contour>
      <point x="377" y="0" type="line"/>
      <point x="377" y="1456" type="line"/>
      <point x="183" y="1456" type="line"/>
      <point x="183" y="0" type="line"/>
    </contour>
  </outline>
</glyph>
<glyph name="J" format="2">
  <advance width="1130.46"/>
  <unicode hex="004A"/>
  <anchor x="512" y="-10" name="bottom"/>
  <anchor x="1130" y="-407" name="bottom_dd"/>
  <anchor x="851" y="1599" name="top"/>
  <anchor x="1130" y="1599" name="top0315"/>
  <anchor x="1130" y="1600" name="top_dd"/>
  <outline>
    <contour>
      <point x="779" y="1456" type="line"/>
      <point x="779" y="426" type="line"/>
      <point x="779" y="236"/>
      <point x="665" y="136"/>
      <point x="513" y="136" type="curve" smooth="yes"/>
      <point x="357" y="136"/>
      <point x="247" y="219"/>
      <point x="247" y="403" type="curve"/>
      <point x="53" y="403" type="line"/>
      <point x="53" y="116"/>
      <point x="245" y="-20"/>
      <point x="513" y="-20" type="curve" smooth="yes"/>
      <point x="781" y="-20"/>
      <point x="973" y="137"/>
      <point x="973" y="426" type="curve"/>
      <point x="973" y="1456" type="line"/>
    </contour>
  </outline>
</glyph>
<glyph name="L" format="2">
  <advance width="1103.41"/>
  <unicode hex="004C"/>
  <anchor x="620" y="10" name="bottom"/>
  <anchor x="1103" y="-407" name="bottom_dd"/>
  <anchor x="604" y="1455" name="caron"/>
  <anchor x="600" y="790" name="dot"/>
  <anchor x="264" y="1595" name="top"/>
  <anchor x="1103" y="1595" name="top0315"/>
  <anchor x="1103" y="1600" name="top_dd"/>
  <outline>
    <contour>
      <point x="1053" y="0" type="line"/>
      <point x="1053" y="156" type="line"/>
      <point x="325" y="156" type="line"/>
      <point x="325" y="0" type="line"/>
    </contour>
    <contour>
      <point x="363" y="0" type="line"/>
      <point x="363" y="1456" type="line"/>
      <point x="169" y="1456" type="line"/>
      <point x="169" y="0" type="line"/>
    </contour>
  </outline>
</glyph>
<glyph name="O" format="2">
  <advance width="1409.5"/>
  <unicode hex="004F"/>
  <anchor x="708" y="0" name="bottom"/>
  <anchor x="1410" y="-407" name="bottom_dd"/>
  <anchor x="148" y="1454" name="tonos"/>
  <anchor x="707" y="1603" name="top"/>
  <anchor x="1410" y="1603" name="top0315"/>
  <anchor x="1410" y="1600" name="top_dd"/>
  <outline>
    <contour>
      <point x="1290" y="681" type="curve"/>
      <point x="1290" y="774" type="line"/>
      <point x="1290" y="1210"/>
      <point x="1059" y="1476"/>
      <point x="704" y="1476" type="curve" smooth="yes"/>
      <point x="359" y="1476"/>
      <point x="118" y="1210"/>
      <point x="118" y="774" type="curve"/>
      <point x="118" y="681" type="line"/>
      <point x="118" y="245"/>
      <point x="361" y="-20"/>
      <point x="706" y="-20" type="curve" smooth="yes"/>
      <point x="1061" y="-20"/>
      <point x="1290" y="245"/>
    </contour>
    <contour>
      <point x="1098" y="776" type="curve"/>
      <point x="1098" y="681" type="line"/>
      <point x="1098" y="332"/>
      <point x="956" y="142"/>
      <point x="706" y="142" type="curve" smooth="yes"/>
      <point x="468" y="142"/>
      <point x="311" y="332"/>
      <point x="311" y="681" type="curve" smooth="yes"/>
      <point x="311" y="776" type="line" smooth="yes"/>
      <point x="311" y="1123"/>
      <point x="466" y="1313"/>
      <point x="704" y="1313" type="curve" smooth="yes"/>
      <point x="952" y="1313"/>
      <point x="1098" y="1123"/>
    </contour>
  </outline>
</glyph>
<glyph name="Q" format="2">
  <advance width="1409.5"/>
  <unicode hex="0051"/>
  <anchor x="698" y="-10" name="bottom"/>
  <anchor x="1410" y="-407" name="bottom_dd"/>
  <anchor x="700" y="1600" name="top"/>
  <anchor x="1410" y="1600" name="top0315"/>
  <anchor x="1410" y="1600" name="top_dd"/>
  <outline>
    <contour>
      <point x="1287" y="-127" type="line"/>
      <point x="916" y="166" type="line"/>
      <point x="791" y="43" type="line"/>
      <point x="1156" y="-247" type="line"/>
    </contour>
    <contour>
      <point x="1282" y="681" type="curve"/>
      <point x="1282" y="774" type="line"/>
      <point x="1282" y="1210"/>
      <point x="1051" y="1476"/>
      <point x="695" y="1476" type="curve" smooth="yes"/>
      <point x="350" y="1476"/>
      <point x="109" y="1210"/>
      <point x="109" y="774" type="curve"/>
      <point x="109" y="681" type="line"/>
      <point x="109" y="245"/>
      <point x="352" y="-20"/>
      <point x="697" y="-20" type="curve" smooth="yes"/>
      <point x="1053" y="-20"/>
      <point x="1282" y="245"/>
    </contour>
    <contour>
      <point x="1089" y="776" type="curve"/>
      <point x="1089" y="681" type="line"/>
      <point x="1089" y="332"/>
      <point x="947" y="142"/>
      <point x="697" y="142" type="curve" smooth="yes"/>
      <point x="460" y="142"/>
      <point x="303" y="332"/>
      <point x="303" y="681" type="curve" smooth="yes"/>
      <point x="303" y="776" type="line" smooth="yes"/>
      <point x="303" y="1123"/>
      <point x="458" y="1313"/>
      <point x="695" y="1313" type="curve" smooth="yes"/>
      <point x="944" y="1313"/>
      <point x="1089" y="1123"/>
    </contour>
  </outline>
</glyph>
<glyph name="U" format="2">
  <advance width="1327.69"/>
  <unicode hex="0055"/>
  <anchor x="666" y="0" name="bottom"/>
  <anchor x="1328" y="-407" name="bottom_dd"/>
  <anchor x="941" y="44" name="ogonek"/>
  <anchor x="834" y="0" name="right"/>
  <anchor x="667" y="1601" name="top"/>
  <anchor x="1328" y="1601" name="top0315"/>
  <anchor x="1328" y="1600" name="top_dd"/>
  <outline>
    <contour>
      <point x="1195" y="1456" type="line"/>
      <point x="1000" y="1456" type="line"/>
      <point x="1000" y="471" type="line" smooth="yes"/>
      <point x="1000" y="243"/>
      <point x="867" y="136"/>
      <point x="666" y="136" type="curve" smooth="yes"/>
      <point x="466" y="136"/>
      <point x="332" y="243"/>
      <point x="332" y="471" type="curve" smooth="yes"/>
      <point x="332" y="1456" type="line"/>
      <point x="140" y="1456" type="line"/>
      <point x="140" y="471" type="line"/>
      <point x="140" y="143"/>
      <point x="369" y="-20"/>
      <point x="666" y="-20" type="curve" smooth="yes"/>
      <point x="948" y="-20"/>
      <point x="1195" y="143"/>
      <point x="1195" y="471" type="curve"/>
    </contour>
  </outline>
</glyph>
<glyph name="V" format="2">
  <advance width="1304.9"/>
  <unicode hex="0056"/>
  <anchor x="656" y="10" name="bottom"/>
  <anchor x="1305" y="-407" name="bottom_dd"/>
  <anchor x="656" y="1612" name="top"/>
  <anchor x="1305" y="1612" name="top0315"/>
  <anchor x="1305" y="1600" name="top_dd"/>
  <outline>
    <contour>
      <point x="1067" y="1456" type="line"/>
      <point x="639" y="220" type="line"/>
      <point x="589" y="0" type="line"/>
      <point x="739" y="0" type="line"/>
      <point x="1278" y="1456" type="line"/>
    </contour>
    <contour>
      <point x="664" y="220" type="line"/>
      <point x="240" y="1456" type="line"/>
      <point x="29" y="1456" type="line"/>
      <point x="567" y="0" type="line"/>
      <point x="717" y="0" type="line"/>
    </contour>
  </outline>
</glyph>
<glyph name="Y" format="2">
  <advance width="1230.28"/>
  <unicode hex="0059"/>
  <anchor x="615" y="1" name="bottom"/>
  <anchor x="1230" y="-407" name="bottom_dd"/>
  <anchor x="614" y="593" name="cross"/>
  <anchor x="-64" y="1454" name="tonos"/>
  <anchor x="618" y="1600" name="top"/>
  <anchor x="1230" y="1600" name="top0315"/>
  <anchor x="1230" y="1600" name="top_dd"/>
  <outline>
    <contour>
      <point x="614" y="724" type="line"/>
      <point x="237" y="1456" type="line"/>
      <point x="15" y="1456" type="line"/>
      <point x="516" y="544" type="line"/>
      <point x="516" y="0" type="line"/>
      <point x="711" y="0" type="line"/>
      <point x="711" y="544" type="line"/>
      <point x="1212" y="1456" type="line"/>
      <point x="992" y="1456" type="line"/>
    </contour>
  </outline>
</glyph>
<glyph name="Z" format="2">
  <advance width="1226.73"/>
  <unicode hex="005A"/>
  <anchor x="613" y="10" name="bottom"/>
  <anchor x="1227" y="-407" name="bottom_dd"/>
  <anchor x="616" y="1601" name="top"/>
  <anchor x="1227" y="1601" name="top0315"/>
  <anchor x="1227" y="1600" name="top_dd"/>
  <outline>
    <contour>
      <point x="1146" y="0" type="line"/>
      <point x="1146" y="156" type="line"/>
      <point x="160" y="156" type="line"/>
      <point x="160" y="0" type="line"/>
    </contour>
    <contour>
      <point x="207" y="0" type="line"/>
      <point x="1114" y="1317" type="line"/>
      <point x="1114" y="1456" type="line"/>
      <point x="993" y="1456" type="line"/>
      <point x="87" y="143" type="line"/>
      <point x="87" y="0" type="line"/>
    </contour>
    <contour>
      <point x="1032" y="1299" type="line"/>
      <point x="1032" y="1456" type="line"/>
      <point x="99" y="1456" type="line"/>
      <point x="99" y="1299" type="line"/>
    </contour>
  </outline>
</glyph>
<glyph name="bracketright" format="2">
  <advance width="544.56"/>
  <unicode hex="005D"/>
  <outline>
    <contour>
      <point x="10" y="1664" type="line"/>
      <point x="10" y="1514" type="line"/>
      <point x="202" y="1514" type="line"/>
      <point x="202" y="-162" type="line"/>
      <point x="10" y="-162" type="line"/>
      <point x="10" y="-312" type="line"/>
      <point x="389" y="-312" type="line"/>
      <point x="389" y="1664" type="line"/>
    </contour>
  </outline>
</glyph>
<glyph name="underscore" format="2">
  <advance width="925.08"/>
  <unicode hex="005F"/>
  <outline>
    <contour>
      <point x="921" y="-150" type="line"/>
      <point x="921" y="0" type="line"/>
      <point x="4" y="0" type="line"/>
      <point x="4" y="-150" type="line"/>
    </contour>
  </outline>
</glyph>
<glyph name="grave" format="2">
  <advance width="634.37"/>
  <unicode hex="0060"/>
  <anchor x="369" y="1290" name="_top"/>
  <anchor x="369" y="1640" name="mkmktop_acc"/>
  <outline>
    <contour>
      <point x="475" y="1243" type="line"/>
      <point x="281" y="1536" type="line"/>
      <point x="56" y="1536" type="line"/>
      <point x="315" y="1243" type="line"/>
    </contour>
  </outline>
</glyph>
<glyph name="a" format="2">
  <advance width="1114.67"/>
  <unicode hex="0061"/>
  <anchor x="502" y="0" name="bottom"/>
  <anchor x="1115" y="-407" name="bottom_dd"/>
  <anchor x="970" y="0" name="ogonek"/>
  <anchor x="700" y="1288" name="rhalfring"/>
  <anchor x="879" y="654" name="rhotichook"/>
  <anchor x="582" y="1290" name="top"/>
  <anchor x="1115" y="1290" name="top0315"/>
  <anchor x="1115" y="1600" name="top_dd"/>
  <outline>
    <contour>
      <point x="778" y="742" type="curve"/>
      <point x="778" y="185" type="line"/>
      <point x="778" y="124"/>
      <point x="789" y="42"/>
      <point x="808" y="0" type="curve"/>
      <point x="1003" y="0" type="line"/>
      <point x="1003" y="16" type="line"/>
      <point x="978" y="74"/>
      <point x="965" y="164"/>
      <point x="965" y="236" type="curve" smooth="yes"/>
      <point x="965" y="740" type="line"/>
      <point x="965" y="982"/>
      <point x="798" y="1102"/>
      <point x="562" y="1102" type="curve" smooth="yes"/>
      <point x="300" y="1102"/>
      <point x="132" y="937"/>
      <point x="132" y="782" type="curve"/>
      <point x="319" y="782" type="line"/>
      <point x="319" y="873"/>
      <point x="412" y="954"/>
      <point x="551" y="954" type="curve" smooth="yes"/>
      <point x="700" y="954"/>
      <point x="778" y="871"/>
    </contour>
    <contour>
      <point x="812" y="526" type="line"/>
      <point x="810" y="656" type="line"/>
      <point x="596" y="656" type="line"/>
      <point x="299" y="656"/>
      <point x="109" y="533"/>
      <point x="109" y="300" type="curve" smooth="yes"/>
      <point x="109" y="121"/>
      <point x="254" y="-20"/>
      <point x="475" y="-20" type="curve" smooth="yes"/>
      <point x="709" y="-20"/>
      <point x="856" y="167"/>
      <point x="876" y="278" type="curve"/>
      <point x="796" y="367" type="line"/>
      <point x="790" y="268"/>
      <point x="671" y="140"/>
      <point x="502" y="140" type="curve" smooth="yes"/>
      <point x="367" y="140"/>
      <point x="296" y="222"/>
      <point x="296" y="326" type="curve" smooth="yes"/>
      <point x="296" y="459"/>
      <point x="415" y="526"/>
      <point x="626" y="526" type="curve"/>
    </contour>
  </outline>
</glyph>
<glyph name="b" format="2">
  <advance width="1150.12"/>
  <unicode hex="0062"/>
  <anchor x="599" y="-10" name="bottom"/>
  <anchor x="1150" y="-407" name="bottom_dd"/>
  <anchor x="634" y="1611" name="top"/>
  <anchor x="1150" y="1611" name="top0315"/>
  <anchor x="1150" y="1600" name="top_dd"/>
  <outline>
    <contour>
      <point x="327" y="1536" type="line"/>
      <point x="140" y="1536" type="line"/>
      <point x="140" y="0" type="line"/>
      <point x="311" y="0" type="line"/>
      <point x="327" y="210" type="line"/>
    </contour>
    <contour>
      <point x="1057" y="529" type="curve" smooth="yes"/>
      <point x="1057" y="550" type="line"/>
      <point x="1057" y="880"/>
      <point x="906" y="1102"/>
      <point x="635" y="1102" type="curve" smooth="yes"/>
      <point x="361" y="1102"/>
      <point x="229" y="905"/>
      <point x="197" y="588" type="curve"/>
      <point x="197" y="491" type="line"/>
      <point x="228" y="177"/>
      <point x="361" y="-20"/>
      <point x="637" y="-20" type="curve" smooth="yes"/>
      <point x="905" y="-20"/>
      <point x="1057" y="213"/>
    </contour>
    <contour>
      <point x="870" y="550" type="curve" smooth="yes"/>
      <point x="870" y="529" type="line"/>
      <point x="870" y="313"/>
      <point x="789" y="136"/>
      <point x="590" y="136" type="curve" smooth="yes"/>
      <point x="407" y="136"/>
      <point x="320" y="276"/>
      <point x="288" y="417" type="curve"/>
      <point x="288" y="660" type="line"/>
      <point x="318" y="807"/>
      <point x="403" y="947"/>
      <point x="588" y="947" type="curve" smooth="yes"/>
      <point x="797" y="947"/>
      <point x="870" y="766"/>
    </contour>
  </outline>
</glyph>
<glyph name="d" format="2">
  <advance width="1155.58"/>
  <unicode hex="0064"/>
  <anchor x="617" y="0" name="bottom"/>
  <anchor x="1156" y="-407" name="bottom_dd"/>
  <anchor x="1115" y="1536" name="caron"/>
  <anchor x="876" y="1306" name="cross"/>
  <anchor x="549" y="1612" name="top"/>
  <anchor x="1156" y="1612" name="top0315"/>
  <anchor x="1156" y="1600" name="top_dd"/>
  <outline>
    <contour>
      <point x="822" y="1536" type="line"/>
      <point x="822" y="210" type="line"/>
      <point x="838" y="0" type="line"/>
      <point x="1009" y="0" type="line"/>
      <point x="1009" y="1536" type="line"/>
    </contour>
    <contour>
      <point x="95" y="550" type="curve" smooth="yes"/>
      <point x="95" y="529" type="line"/>
      <point x="95" y="213"/>
      <point x="267" y="-20"/>
      <point x="521" y="-20" type="curve" smooth="yes"/>
      <point x="796" y="-20"/>
      <point x="929" y="177"/>
      <point x="959" y="491" type="curve"/>
      <point x="959" y="588" type="line"/>
      <point x="928" y="905"/>
      <point x="795" y="1102"/>
      <point x="523" y="1102" type="curve" smooth="yes"/>
      <point x="265" y="1102"/>
      <point x="95" y="880"/>
    </contour>
    <contour>
      <point x="282" y="529" type="curve" smooth="yes"/>
      <point x="282" y="550" type="line"/>
      <point x="282" y="766"/>
      <point x="367" y="947"/>
      <point x="569" y="947" type="curve" smooth="yes"/>
      <point x="755" y="947"/>
      <point x="839" y="807"/>
      <point x="870" y="660" type="curve"/>
      <point x="870" y="417" type="line"/>
      <point x="829" y="267"/>
      <point x="750" y="136"/>
      <point x="567" y="136" type="curve" smooth="yes"/>
      <point x="367" y="136"/>
      <point x="282" y="313"/>
    </contour>
  </outline>
</glyph>
<glyph name="f" format="2">
  <advance width="712.34"/>
  <unicode hex="0066"/>
  <anchor x="330" y="10" name="bottom"/>
  <anchor x="712" y="-407" name="bottom_dd"/>
  <anchor x="502" y="1753" name="top"/>
  <anchor x="712" y="1753" name="top0315"/>
  <anchor x="712" y="1600" name="top_dd"/>
  <outline>
    <contour>
      <point x="231" y="0" type="line"/>
      <point x="418" y="0" type="line"/>
      <point x="418" y="1197" type="line"/>
      <point x="418" y="1328"/>
      <point x="487" y="1400"/>
      <point x="605" y="1400" type="curve" smooth="yes"/>
      <point x="640" y="1400"/>
      <point x="677" y="1397"/>
      <point x="705" y="1392" type="curve"/>
      <point x="715" y="1541" type="line"/>
      <point x="674" y="1551"/>
      <point x="630" y="1557"/>
      <point x="588" y="1557" type="curve" smooth="yes"/>
      <point x="366" y="1557"/>
      <point x="231" y="1429"/>
      <point x="231" y="1197" type="curve"/>
    </contour>
    <contour>
      <point x="648" y="941" type="line"/>
      <point x="648" y="1082" type="line"/>
      <point x="61" y="1082" type="line"/>
      <point x="61" y="941" type="line"/>
    </contour>
  </outline>
</glyph>
<glyph name="g" format="2">
  <advance width="1150.3"/>
  <unicode hex="0067"/>
  <anchor x="554" y="-447" name="bottom"/>
  <anchor x="1150" y="-407" name="bottom_dd"/>
  <anchor x="556" y="1290" name="top"/>
  <anchor x="1150" y="1290" name="top0315"/>
  <anchor x="1150" y="1600" name="top_dd"/>
  <outline>
    <contour>
      <point x="1011" y="1082" type="line"/>
      <point x="841" y="1082" type="line"/>
      <point x="824" y="844" type="line"/>
      <point x="824" y="14" type="line" smooth="yes"/>
      <point x="824" y="-175"/>
      <point x="712" y="-277"/>
      <point x="538" y="-277" type="curve" smooth="yes"/>
      <point x="440" y="-277"/>
      <point x="338" y="-240"/>
      <point x="248" y="-130" type="curve"/>
      <point x="151" y="-239" type="line"/>
      <point x="248" y="-380"/>
      <point x="440" y="-427"/>
      <point x="552" y="-427" type="curve" smooth="yes"/>
      <point x="822" y="-427"/>
      <point x="1011" y="-264"/>
      <point x="1011" y="23" type="curve" smooth="yes"/>
    </contour>
    <contour>
      <point x="96" y="550" type="curve" smooth="yes"/>
      <point x="96" y="529" type="line"/>
      <point x="96" y="213"/>
      <point x="262" y="-20"/>
      <point x="522" y="-20" type="curve" smooth="yes"/>
      <point x="796" y="-20"/>
      <point x="930" y="177"/>
      <point x="961" y="491" type="curve"/>
      <point x="961" y="588" type="line"/>
      <point x="929" y="905"/>
      <point x="796" y="1102"/>
      <point x="524" y="1102" type="curve" smooth="yes"/>
      <point x="260" y="1102"/>
      <point x="96" y="880"/>
    </contour>
    <contour>
      <point x="283" y="529" type="curve" smooth="yes"/>
      <point x="283" y="550" type="line"/>
      <point x="283" y="766"/>
      <point x="368" y="947"/>
      <point x="570" y="947" type="curve" smooth="yes"/>
      <point x="755" y="947"/>
      <point x="839" y="807"/>
      <point x="870" y="660" type="curve"/>
      <point x="870" y="417" type="line"/>
      <point x="829" y="267"/>
      <point x="751" y="136"/>
      <point x="568" y="136" type="curve" smooth="yes"/>
      <point x="368" y="136"/>
      <point x="283" y="313"/>
    </contour>
  </outline>
</glyph>
<glyph name="k" format="2">
  <advance width="1039.07"/>
  <unicode hex="006B"/>
  <anchor x="529" y="71" name="bottom"/>
  <anchor x="1039" y="-407" name="bottom_dd"/>
  <anchor x="249" y="1289" name="cross"/>
  <anchor x="549" y="1611" name="marktop"/>
  <anchor x="549" y="1611" name="top"/>
  <anchor x="909" y="1611" name="top0315"/>
  <anchor x="1039" y="1600" name="top_dd"/>
  <outline>
    <contour>
      <point x="328" y="0" type="line"/>
      <point x="328" y="1536" type="line"/>
      <point x="141" y="1536" type="line"/>
      <point x="141" y="0" type="line"/>
    </contour>
    <contour>
      <point x="518" y="578" type="line"/>
      <point x="988" y="1082" type="line"/>
      <point x="761" y="1082" type="line"/>
      <point x="427" y="725" type="line"/>
      <point x="237" y="500" type="line"/>
      <point x="252" y="304" type="line"/>
    </contour>
    <contour>
      <point x="433" y="517" type="line"/>
      <point x="818" y="0" type="line"/>
      <point x="1038" y="0" type="line"/>
      <point x="530" y="681" type="line"/>
    </contour>
  </outline>
</glyph>
<glyph name="m" format="2">
  <advance width="1795.05"/>
  <unicode hex="006D"/>
  <anchor x="897" y="10" name="bottom"/>
  <anchor x="1795" y="-407" name="bottom_dd"/>
  <anchor x="911" y="1290" name="marktop"/>
  <anchor x="911" y="1290" name="top"/>
  <anchor x="1795" y="1290" name="top0315"/>
  <anchor x="1795" y="1600" name="top_dd"/>
  <outline>
    <contour>
      <point x="326" y="0" type="line"/>
      <point x="326" y="867" type="line"/>
      <point x="316" y="1082" type="line"/>
      <point x="139" y="1082" type="line"/>
      <point x="139" y="0" type="line"/>
    </contour>
    <contour>
      <point x="201" y="586" type="curve"/>
      <point x="288" y="583" type="line"/>
      <point x="289" y="777"/>
      <point x="357" y="947"/>
      <point x="573" y="947" type="curve" smooth="yes"/>
      <point x="713" y="947"/>
      <point x="804" y="882"/>
      <point x="804" y="712" type="curve"/>
      <point x="804" y="0" type="line"/>
      <point x="991" y="0" type="line"/>
      <point x="991" y="721" type="line"/>
      <point x="991" y="992"/>
      <point x="843" y="1102"/>
      <point x="641" y="1102" type="curve" smooth="yes"/>
      <point x="351" y="1102"/>
      <point x="203" y="882"/>
    </contour>
    <contour>
      <point x="864" y="647" type="curve"/>
      <point x="989" y="685" type="line"/>
      <point x="990" y="825"/>
      <point x="1077" y="947"/>
      <point x="1239" y="947" type="curve" smooth="yes"/>
      <point x="1379" y="947"/>
      <point x="1469" y="895"/>
      <point x="1469" y="713" type="curve" smooth="yes"/>
      <point x="1469" y="0" type="line"/>
      <point x="1656" y="0" type="line"/>
      <point x="1656" y="711" type="line" smooth="yes"/>
      <point x="1656" y="984"/>
      <point x="1526" y="1102"/>
      <point x="1294" y="1102" type="curve" smooth="yes"/>
      <point x="1017" y="1102"/>
      <point x="866" y="883"/>
    </contour>
  </outline>
</glyph>
<glyph name="p" format="2">
  <advance width="1150.12"/>
  <unicode hex="0070"/>
  <anchor x="231" y="-407" name="bottom"/>
  <anchor x="1150" y="-407" name="bottom_dd"/>
  <anchor x="629" y="1280" name="marktop"/>
  <anchor x="629" y="1280" name="top"/>
  <anchor x="1150" y="1280" name="top0315"/>
  <anchor x="1150" y="1600" name="top_dd"/>
  <outline>
    <contour>
      <point x="327" y="-416" type="line"/>
      <point x="327" y="874" type="line"/>
      <point x="310" y="1082" type="line"/>
      <point x="140" y="1082" type="line"/>
      <point x="140" y="-416" type="line"/>
    </contour>
    <contour>
      <point x="1055" y="529" type="curve" smooth="yes"/>
      <point x="1055" y="550" type="line"/>
      <point x="1055" y="880"/>
      <point x="905" y="1102"/>
      <point x="633" y="1102" type="curve" smooth="yes"/>
      <point x="360" y="1102"/>
      <point x="219" y="905"/>
      <point x="187" y="588" type="curve"/>
      <point x="187" y="472" type="line"/>
      <point x="218" y="169"/>
      <point x="359" y="-20"/>
      <point x="636" y="-20" type="curve" smooth="yes"/>
      <point x="904" y="-20"/>
      <point x="1055" y="213"/>
    </contour>
    <contour>
      <point x="868" y="550" type="curve" smooth="yes"/>
      <point x="868" y="529" type="line"/>
      <point x="868" y="313"/>
      <point x="779" y="130"/>
      <point x="579" y="130" type="curve" smooth="yes"/>
      <point x="397" y="130"/>
      <point x="318" y="258"/>
      <point x="278" y="399" type="curve"/>
      <point x="278" y="660" type="line"/>
      <point x="308" y="807"/>
      <point x="393" y="947"/>
      <point x="577" y="947" type="curve" smooth="yes"/>
      <point x="779" y="947"/>
      <point x="868" y="766"/>
    </contour>
  </outline>
</glyph>
<glyph name="q" format="2">
  <advance width="1164.68"/>
  <unicode hex="0071"/>
  <anchor x="915.99" y="-407" name="bottom"/>
  <anchor x="1165" y="-407" name="bottom_dd"/>
  <anchor x="537" y="1290" name="marktop"/>
  <anchor x="537" y="1290" name="top"/>
  <anchor x="1165" y="1290" name="top0315"/>
  <anchor x="1165" y="1600" name="top_dd"/>
  <outline>
    <contour>
      <point x="821" y="874" type="line"/>
      <point x="821" y="-416" type="line"/>
      <point x="1008" y="-416" type="line"/>
      <point x="1008" y="1082" type="line"/>
      <point x="837" y="1082" type="line"/>
    </contour>
    <contour>
      <point x="95" y="550" type="curve" smooth="yes"/>
      <point x="95" y="529" type="line"/>
      <point x="95" y="213"/>
      <point x="257" y="-20"/>
      <point x="524" y="-20" type="curve" smooth="yes"/>
      <point x="799" y="-20"/>
      <point x="939" y="177"/>
      <point x="968" y="491" type="curve"/>
      <point x="968" y="588" type="line"/>
      <point x="938" y="905"/>
      <point x="799" y="1102"/>
      <point x="526" y="1102" type="curve" smooth="yes"/>
      <point x="255" y="1102"/>
      <point x="95" y="880"/>
    </contour>
    <contour>
      <point x="282" y="529" type="curve" smooth="yes"/>
      <point x="282" y="550" type="line"/>
      <point x="282" y="766"/>
      <point x="371" y="952"/>
      <point x="573" y="952" type="curve" smooth="yes"/>
      <point x="758" y="952"/>
      <point x="848" y="806"/>
      <point x="879" y="660" type="curve"/>
      <point x="879" y="417" type="line"/>
      <point x="838" y="267"/>
      <point x="754" y="130"/>
      <point x="571" y="130" type="curve" smooth="yes"/>
      <point x="371" y="130"/>
      <point x="282" y="313"/>
    </contour>
  </outline>
</glyph>
<glyph name="t" format="2">
  <advance width="669.84"/>
  <unicode hex="0074"/>
  <anchor x="453" y="0" name="bottom"/>
  <anchor x="670" y="-407" name="bottom_dd"/>
  <anchor x="540" y="1655" name="caron"/>
  <anchor x="303" y="674" name="cross"/>
  <anchor x="570" y="1357" name="marktop"/>
  <anchor x="312" y="1482" name="top"/>
  <anchor x="670" y="1482" name="top0315"/>
  <anchor x="670" y="1600" name="top_dd"/>
  <outline>
    <contour>
      <point x="595" y="941" type="line"/>
      <point x="595" y="1082" type="line"/>
      <point x="9" y="1082" type="line"/>
      <point x="9" y="941" type="line"/>
    </contour>
    <contour>
      <point x="393" y="1345" type="line"/>
      <point x="206" y="1345" type="line"/>
      <point x="206" y="269" type="line"/>
      <point x="206" y="52"/>
      <point x="319" y="-20"/>
      <point x="456" y="-20" type="curve" smooth="yes"/>
      <point x="522" y="-20"/>
      <point x="570" y="-9"/>
      <point x="599" y="0" type="curve"/>
      <point x="598" y="149" type="line"/>
      <point x="582" y="145"/>
      <point x="543" y="138"/>
      <point x="512" y="138" type="curve" smooth="yes"/>
      <point x="450" y="138"/>
      <point x="393" y="156"/>
      <point x="393" y="268" type="curve"/>
    </contour>
  </outline>
</glyph>
<glyph name="u" format="2">
  <advance width="1129.19"/>
  <unicode hex="0075"/>
  <anchor x="563" y="0" name="bottom"/>
  <anchor x="1129" y="-407" name="bottom_dd"/>
  <anchor x="509" y="0" name="bottomu"/>
  <anchor x="979" y="0" name="ogonek"/>
  <anchor x="920" y="654" name="rhotichook"/>
  <anchor x="567" y="1290" name="top"/>
  <anchor x="1129" y="1290" name="top0315"/>
  <anchor x="1129" y="1600" name="top_dd"/>
  <outline>
    <contour>
      <point x="802" y="1082" type="line"/>
      <point x="802" y="250" type="line"/>
      <point x="811" y="0" type="line"/>
      <point x="989" y="0" type="line"/>
      <point x="989" y="1082" type="line"/>
    </contour>
    <contour>
      <point x="915" y="480" type="curve"/>
      <point x="837" y="478" type="line"/>
      <point x="837" y="287"/>
      <point x="756" y="136"/>
      <point x="521" y="136" type="curve" smooth="yes"/>
      <point x="421" y="136"/>
      <point x="323" y="186"/>
      <point x="323" y="382" type="curve"/>
      <point x="323" y="1082" type="line"/>
      <point x="136" y="1082" type="line"/>
      <point x="136" y="384" type="line"/>
      <point x="136" y="96"/>
      <point x="279" y="-20"/>
      <point x="491" y="-20" type="curve" smooth="yes"/>
      <point x="802" y="-20"/>
      <point x="915" y="192"/>
    </contour>
  </outline>
</glyph>
<glyph name="v" format="2">
  <advance width="992.56"/>
  <unicode hex="0076"/>
  <anchor x="504" y="10" name="bottom"/>
  <anchor x="993" y="-407" name="bottom_dd"/>
  <anchor x="505" y="1280" name="top"/>
  <anchor x="993" y="1280" name="top0315"/>
  <anchor x="993" y="1600" name="top_dd"/>
  <outline>
    <contour>
      <point x="764" y="1082" type="line"/>
      <point x="470" y="166" type="line"/>
      <point x="441" y="0" type="line"/>
      <point x="567" y="0" type="line"/>
      <point x="955" y="1082" type="line"/>
    </contour>
    <contour>
      <point x="528" y="161" type="line"/>
      <point x="224" y="1082" type="line"/>
      <point x="33" y="1082" type="line"/>
      <point x="425" y="0" type="line"/>
      <point x="550" y="0" type="line"/>
    </contour>
  </outline>
</glyph>
<glyph name="w" format="2">
  <advance width="1539.08"/>
  <unicode hex="0077"/>
  <anchor x="766" y="10" name="bottom"/>
  <anchor x="1539" y="-407" name="bottom_dd"/>
  <anchor x="763" y="1290" name="marktop"/>
  <anchor x="763" y="1290" name="top"/>
  <anchor x="1539" y="1290" name="top0315"/>
  <anchor x="1539" y="1600" name="top_dd"/>
  <outline>
    <contour>
      <point x="692" y="1082" type="line"/>
      <point x="414" y="194" type="line"/>
      <point x="389" y="0" type="line"/>
      <point x="508" y="0" type="line"/>
      <point x="791" y="904" type="line"/>
      <point x="815" y="1082" type="line"/>
    </contour>
    <contour>
      <point x="466" y="184" type="line"/>
      <point x="229" y="1082" type="line"/>
      <point x="43" y="1082" type="line"/>
      <point x="357" y="0" type="line"/>
      <point x="482" y="0" type="line"/>
    </contour>
    <contour>
      <point x="1306" y="1082" type="line"/>
      <point x="1080" y="190" type="line"/>
      <point x="1053" y="0" type="line"/>
      <point x="1177" y="0" type="line"/>
      <point x="1491" y="1082" type="line"/>
    </contour>
    <contour>
      <point x="1115" y="208" type="line"/>
      <point x="843" y="1082" type="line"/>
      <point x="712" y="1082" type="line"/>
      <point x="735" y="906" type="line"/>
      <point x="1026" y="0" type="line"/>
      <point x="1145" y="0" type="line"/>
    </contour>
  </outline>
</glyph>
<glyph name="x" format="2">
  <advance width="1016.22"/>
  <unicode hex="0078"/>
  <anchor x="511" y="10" name="bottom"/>
  <anchor x="1016" y="-407" name="bottom_dd"/>
  <anchor x="507" y="553" name="cross"/>
  <anchor x="868" y="0" name="right"/>
  <anchor x="508" y="1280" name="top"/>
  <anchor x="1016" y="1280" name="top0315"/>
  <anchor x="1016" y="1600" name="top_dd"/>
  <outline>
    <contour>
      <point x="504" y="687" type="line"/>
      <point x="268" y="1082" type="line"/>
      <point x="52" y="1082" type="line"/>
      <point x="406" y="548" type="line"/>
      <point x="41" y="0" type="line"/>
      <point x="259" y="0" type="line"/>
      <point x="507" y="407" type="line"/>
      <point x="756" y="0" type="line"/>
      <point x="971" y="0" type="line"/>
      <point x="607" y="548" type="line"/>
      <point x="960" y="1082" type="line"/>
      <point x="742" y="1082" type="line"/>
    </contour>
  </outline>
</glyph>
<glyph name="z" format="2">
  <advance width="1016.22"/>
  <unicode hex="007A"/>
  <anchor x="525" y="10" name="bottom"/>
  <anchor x="1016" y="-407" name="bottom_dd"/>
  <anchor x="515" y="1290" name="top"/>
  <anchor x="1016" y="1290" name="top0315"/>
  <anchor x="1016" y="1600" name="top_dd"/>
  <outline>
    <contour>
      <point x="947" y="0" type="line"/>
      <point x="947" y="150" type="line"/>
      <point x="160" y="150" type="line"/>
      <point x="160" y="0" type="line"/>
    </contour>
    <contour>
      <point x="203" y="0" type="line"/>
      <point x="918" y="952" type="line"/>
      <point x="918" y="1082" type="line"/>
      <point x="800" y="1082" type="line"/>
      <point x="89" y="135" type="line"/>
      <point x="89" y="0" type="line"/>
    </contour>
    <contour>
      <point x="836" y="931" type="line"/>
      <point x="836" y="1082" type="line"/>
      <point x="97" y="1082" type="line"/>
      <point x="97" y="931" type="line"/>
    </contour>
  </outline>
</glyph>
<glyph name="braceleft" format="2">
  <advance width="693.67"/>
  <unicode hex="007B"/>
  <outline>
    <contour>
      <point x="671" y="1484" type="curve"/>
      <point x="632" y="1597" type="line"/>
      <point x="360" y="1520"/>
      <point x="276" y="1342"/>
      <point x="276" y="1132" type="curve"/>
      <point x="276" y="925" type="line"/>
      <point x="276" y="780"/>
      <point x="214" y="687"/>
      <point x="64" y="687" type="curve"/>
      <point x="64" y="566" type="line"/>
      <point x="347" y="566"/>
      <point x="463" y="724"/>
      <point x="463" y="925" type="curve"/>
      <point x="463" y="1132" type="line"/>
      <point x="463" y="1296"/>
      <point x="513" y="1433"/>
    </contour>
    <contour>
      <point x="632" y="-367" type="curve"/>
      <point x="671" y="-253" type="line"/>
      <point x="513" y="-203"/>
      <point x="463" y="-66"/>
      <point x="463" y="98" type="curve" smooth="yes"/>
      <point x="463" y="305" type="line" smooth="yes"/>
      <point x="463" y="506"/>
      <point x="347" y="664"/>
      <point x="64" y="664" type="curve"/>
      <point x="64" y="543" type="line"/>
      <point x="214" y="543"/>
      <point x="276" y="449"/>
      <point x="276" y="305" type="curve" smooth="yes"/>
      <point x="276" y="98" type="line" smooth="yes"/>
      <point x="276" y="-112"/>
      <point x="360" y="-290"/>
    </contour>
  </outline>
</glyph>
<glyph name="braceright" format="2">
  <advance width="693.67"/>
  <unicode hex="007D"/>
  <outline>
    <contour>
      <point x="59" y="1597" type="curve"/>
      <point x="20" y="1484" type="line"/>
      <point x="178" y="1433"/>
      <point x="228" y="1296"/>
      <point x="228" y="1132" type="curve" smooth="yes"/>
      <point x="228" y="925" type="line" smooth="yes"/>
      <point x="228" y="724"/>
      <point x="345" y="575"/>
      <point x="627" y="575" type="curve"/>
      <point x="627" y="687" type="line"/>
      <point x="478" y="687"/>
      <point x="415" y="780"/>
      <point x="415" y="925" type="curve" smooth="yes"/>
      <point x="415" y="1132" type="line" smooth="yes"/>
      <point x="415" y="1342"/>
      <point x="332" y="1520"/>
    </contour>
    <contour>
      <point x="20" y="-253" type="curve"/>
      <point x="59" y="-367" type="line"/>
      <point x="332" y="-290"/>
      <point x="415" y="-112"/>
      <point x="415" y="98" type="curve" smooth="yes"/>
      <point x="415" y="305" type="line" smooth="yes"/>
      <point x="415" y="449"/>
      <point x="478" y="543"/>
      <point x="627" y="543" type="curve"/>
      <point x="627" y="654" type="line"/>
      <point x="345" y="654"/>
      <point x="228" y="506"/>
      <point x="228" y="305" type="curve" smooth="yes"/>
      <point x="228" y="98" type="line" smooth="yes"/>
      <point x="228" y="-66"/>
      <point x="178" y="-203"/>
    </contour>
  </outline>
</glyph>
<glyph name="asciitilde" format="2">
  <advance width="1392.89"/>
  <unicode hex="007E"/>
  <outline>
    <contour>
      <point x="1263" y="777" type="curve"/>
      <point x="1110" y="777" type="line"/>
      <point x="1110" y="652"/>
      <point x="1041" y="564"/>
      <point x="939" y="564" type="curve" smooth="yes"/>
      <point x="874" y="564"/>
      <point x="824" y="597"/>
      <point x="753" y="663" type="curve" smooth="yes"/>
      <point x="654" y="751"/>
      <point x="571" y="802"/>
      <point x="454" y="802" type="curve" smooth="yes"/>
      <point x="264" y="802"/>
      <point x="131" y="645"/>
      <point x="131" y="437" type="curve"/>
      <point x="293" y="438" type="line"/>
      <point x="293" y="564"/>
      <point x="352" y="641"/>
      <point x="454" y="641" type="curve" smooth="yes"/>
      <point x="520" y="641"/>
      <point x="573" y="605"/>
      <point x="641" y="542" type="curve" smooth="yes"/>
      <point x="744" y="451"/>
      <point x="822" y="403"/>
      <point x="939" y="403" type="curve" smooth="yes"/>
      <point x="1129" y="403"/>
      <point x="1263" y="573"/>
    </contour>
  </outline>
</glyph>
<glyph name="cent" format="2">
  <advance width="1120.92"/>
  <unicode hex="00A2"/>
  <outline>
    <contour>
      <point x="670" y="1030" type="line"/>
      <point x="670" y="1318" type="line"/>
      <point x="483" y="1318" type="line"/>
      <point x="483" y="1030" type="line"/>
    </contour>
    <contour>
      <point x="670" y="-245" type="line"/>
      <point x="670" y="42" type="line"/>
      <point x="483" y="42" type="line"/>
      <point x="483" y="-245" type="line"/>
    </contour>
    <component base="c" xOffset="12"/>
  </outline>
</glyph>
<glyph name="sterling" format="2">
  <advance width="1190.95"/>
  <unicode hex="00A3"/>
  <outline>
    <contour>
      <point x="95" y="0" type="line"/>
      <point x="1128" y="0" type="line"/>
      <point x="1129" y="156" type="line"/>
      <point x="95" y="156" type="line"/>
    </contour>
    <contour>
      <point x="91" y="623" type="line"/>
      <point x="763" y="623" type="line"/>
      <point x="763" y="779" type="line"/>
      <point x="91" y="779" type="line"/>
    </contour>
    <contour>
      <point x="458" y="402" type="curve" smooth="yes"/>
      <point x="436" y="1039" type="line"/>
      <point x="436" y="1220"/>
      <point x="540" y="1320"/>
      <point x="671" y="1320" type="curve" smooth="yes"/>
      <point x="794" y="1320"/>
      <point x="907" y="1255"/>
      <point x="907" y="1087" type="curve"/>
      <point x="1101" y="1087" type="line"/>
      <point x="1101" y="1319"/>
      <point x="948" y="1476"/>
      <point x="687" y="1476" type="curve" smooth="yes"/>
      <point x="432" y="1476"/>
      <point x="242" y="1315"/>
      <point x="242" y="1039" type="curve" smooth="yes"/>
      <point x="264" y="401" type="line" smooth="yes"/>
      <point x="264" y="312"/>
      <point x="241" y="173"/>
      <point x="172" y="156" type="curve"/>
      <point x="346" y="103" type="line"/>
      <point x="422" y="159"/>
      <point x="459" y="276"/>
    </contour>
  </outline>
</glyph>
<glyph name="currency" format="2">
  <advance width="1460.14"/>
  <unicode hex="00A4"/>
  <outline>
    <contour>
      <point x="313" y="356"/>
      <point x="313" y="608" type="curve"/>
      <point x="313" y="860"/>
      <point x="502" y="1064"/>
      <point x="735" y="1064" type="curve" smooth="yes"/>
      <point x="968" y="1064"/>
      <point x="1156" y="860"/>
      <point x="1156" y="608" type="curve" smooth="yes"/>
      <point x="1156" y="356"/>
      <point x="968" y="150"/>
      <point x="735" y="150" type="curve" smooth="yes"/>
      <point x="502" y="150"/>
    </contour>
    <contour>
      <point x="140" y="963"/>
      <point x="140" y="608" type="curve"/>
      <point x="140" y="254"/>
      <point x="407" y="-20"/>
      <point x="735" y="-20" type="curve" smooth="yes"/>
      <point x="1064" y="-20"/>
      <point x="1330" y="254"/>
      <point x="1330" y="608" type="curve" smooth="yes"/>
      <point x="1330" y="963"/>
      <point x="1064" y="1234"/>
      <point x="735" y="1234" type="curve" smooth="yes"/>
      <point x="407" y="1234"/>
    </contour>
    <contour>
      <point x="1169" y="923" type="line"/>
      <point x="1371" y="1129" type="line"/>
      <point x="1238" y="1265" type="line"/>
      <point x="1036" y="1059" type="line"/>
    </contour>
    <contour>
      <point x="237" y="-26" type="line"/>
      <point x="439" y="180" type="line"/>
      <point x="307" y="314" type="line"/>
      <point x="105" y="109" type="line"/>
    </contour>
    <contour>
      <point x="1036" y="179" type="line"/>
      <point x="1238" y="-27" type="line"/>
      <point x="1371" y="109" type="line"/>
      <point x="1169" y="314" type="line"/>
    </contour>
    <contour>
      <point x="105" y="1129" type="line"/>
      <point x="307" y="923" type="line"/>
      <point x="439" y="1058" type="line"/>
      <point x="237" y="1264" type="line"/>
    </contour>
  </outline>
</glyph>
<glyph name="yen" format="2">
  <advance width="1076.22"/>
  <unicode hex="00A5"/>
  <outline>
    <contour>
      <point x="955" y="612" type="line"/>
      <point x="955" y="736" type="line"/>
      <point x="120" y="736" type="line"/>
      <point x="120" y="612" type="line"/>
    </contour>
    <contour>
      <point x="955" y="322" type="line"/>
      <point x="955" y="446" type="line"/>
      <point x="120" y="446" type="line"/>
      <point x="120" y="322" type="line"/>
    </contour>
    <contour>
      <point x="846" y="1456" type="line"/>
      <point x="480" y="667" type="line"/>
      <point x="504" y="604" type="line"/>
      <point x="628" y="604" type="line"/>
      <point x="1061" y="1456" type="line"/>
    </contour>
    <contour>
      <point x="603" y="660" type="line"/>
      <point x="233" y="1456" type="line"/>
      <point x="15" y="1456" type="line"/>
      <point x="449" y="604" type="line"/>
      <point x="572" y="604" type="line"/>
    </contour>
    <contour>
      <point x="631" y="0" type="line"/>
      <point x="631" y="773" type="line"/>
      <point x="437" y="773" type="line"/>
      <point x="437" y="0" type="line"/>
    </contour>
  </outline>
</glyph>
<glyph name="dieresis" format="2">
  <advance width="855.95"/>
  <unicode hex="00A8"/>
  <anchor x="423" y="1290" name="_top"/>
  <anchor x="423" y="1576" name="mkmktop_acc"/>
  <outline>
    <contour>
      <point x="100" y="1431"/>
      <point x="100" y="1372" type="curve" smooth="yes"/>
      <point x="100" y="1314"/>
      <point x="138" y="1268"/>
      <point x="210" y="1268" type="curve" smooth="yes"/>
      <point x="282" y="1268"/>
      <point x="320" y="1314"/>
      <point x="320" y="1372" type="curve" smooth="yes"/>
      <point x="320" y="1431"/>
      <point x="282" y="1478"/>
      <point x="210" y="1478" type="curve" smooth="yes"/>
      <point x="138" y="1478"/>
    </contour>
    <contour>
      <point x="531" y="1429"/>
      <point x="531" y="1370" type="curve" smooth="yes"/>
      <point x="531" y="1312"/>
      <point x="568" y="1266"/>
      <point x="640" y="1266" type="curve" smooth="yes"/>
      <point x="712" y="1266"/>
      <point x="751" y="1312"/>
      <point x="751" y="1370" type="curve" smooth="yes"/>
      <point x="751" y="1429"/>
      <point x="712" y="1476"/>
      <point x="640" y="1476" type="curve" smooth="yes"/>
      <point x="568" y="1476"/>
    </contour>
  </outline>
</glyph>
<glyph name="copyright" format="2">
  <advance width="1608.67"/>
  <unicode hex="00A9"/>
  <outline>
    <contour>
      <point x="1119" y="598" type="curve"/>
      <point x="973" y="598" type="line"/>
      <point x="973" y="463"/>
      <point x="909" y="412"/>
      <point x="788" y="412" type="curve" smooth="yes"/>
      <point x="656" y="412"/>
      <point x="586" y="518"/>
      <point x="586" y="671" type="curve" smooth="yes"/>
      <point x="586" y="787" type="line" smooth="yes"/>
      <point x="586" y="938"/>
      <point x="656" y="1046"/>
      <point x="788" y="1046" type="curve" smooth="yes"/>
      <point x="909" y="1046"/>
      <point x="974" y="992"/>
      <point x="974" y="860" type="curve"/>
      <point x="1120" y="860" type="line"/>
      <point x="1120" y="1069"/>
      <point x="992" y="1173"/>
      <point x="788" y="1173" type="curve" smooth="yes"/>
      <point x="575" y="1173"/>
      <point x="441" y="1015"/>
      <point x="441" y="786" type="curve"/>
      <point x="441" y="671" type="line"/>
      <point x="441" y="441"/>
      <point x="575" y="284"/>
      <point x="788" y="284" type="curve" smooth="yes"/>
      <point x="992" y="284"/>
      <point x="1119" y="388"/>
    </contour>
    <contour>
      <point x="207" y="373"/>
      <point x="207" y="729" type="curve"/>
      <point x="207" y="1085"/>
      <point x="473" y="1357"/>
      <point x="801" y="1357" type="curve" smooth="yes"/>
      <point x="1128" y="1357"/>
      <point x="1394" y="1085"/>
      <point x="1394" y="729" type="curve" smooth="yes"/>
      <point x="1394" y="373"/>
      <point x="1128" y="98"/>
      <point x="801" y="98" type="curve" smooth="yes"/>
      <point x="473" y="98"/>
    </contour>
    <contour>
      <point x="91" y="1152"/>
      <point x="91" y="729" type="curve"/>
      <point x="91" y="306"/>
      <point x="409" y="-21"/>
      <point x="801" y="-21" type="curve" smooth="yes"/>
      <point x="1192" y="-21"/>
      <point x="1510" y="306"/>
      <point x="1510" y="729" type="curve" smooth="yes"/>
      <point x="1510" y="1152"/>
      <point x="1192" y="1476"/>
      <point x="801" y="1476" type="curve" smooth="yes"/>
      <point x="409" y="1476"/>
    </contour>
  </outline>
</glyph>
<glyph name="logicalnot" format="2">
  <advance width="1134.67"/>
  <unicode hex="00AC"/>
  <outline>
    <contour>
      <point x="959" y="640" type="line"/>
      <point x="959" y="800" type="line"/>
      <point x="127" y="800" type="line"/>
      <point x="127" y="640" type="line"/>
    </contour>
    <contour>
      <point x="959" y="376" type="line"/>
      <point x="959" y="726" type="line"/>
      <point x="772" y="726" type="line"/>
      <point x="772" y="376" type="line"/>
    </contour>
  </outline>
</glyph>
<glyph name="macron" format="2">
  <advance width="940.22"/>
  <unicode hex="00AF"/>
  <anchor x="474" y="1282" name="_top"/>
  <anchor x="474" y="1576" name="mkmktop_acc"/>
  <outline>
    <contour>
      <point x="815" y="1304" type="line"/>
      <point x="815" y="1445" type="line"/>
      <point x="143" y="1445" type="line"/>
      <point x="143" y="1304" type="line"/>
    </contour>
  </outline>
</glyph>
<glyph name="acute" format="2">
  <advance width="643.86"/>
  <unicode hex="00B4"/>
  <anchor x="226" y="1290" name="_top"/>
  <anchor x="226" y="1640" name="mkmktop_acc"/>
  <outline>
    <contour>
      <point x="317" y="1536" type="line"/>
      <point x="123" y="1243" type="line"/>
      <point x="273" y="1243" type="line"/>
      <point x="542" y="1536" type="line"/>
    </contour>
  </outline>
</glyph>
<glyph name="cedilla" format="2">
  <advance width="508.2"/>
  <unicode hex="00B8"/>
  <anchor x="214" y="0" name="_bottom"/>
  <anchor x="214" y="-440" name="mkmkbottom_acc"/>
  <outline>
    <contour>
      <point x="286" y="0" type="line"/>
      <point x="152" y="0" type="line"/>
      <point x="121" y="-135" type="line"/>
      <point x="233" y="-144"/>
      <point x="282" y="-162"/>
      <point x="282" y="-230" type="curve" smooth="yes"/>
      <point x="282" y="-300"/>
      <point x="208" y="-329"/>
      <point x="116" y="-329" type="curve"/>
      <point x="123" y="-435" type="line"/>
      <point x="322" y="-435"/>
      <point x="427" y="-351"/>
      <point x="427" y="-226" type="curve" smooth="yes"/>
      <point x="427" y="-110"/>
      <point x="351" y="-66"/>
      <point x="274" y="-53" type="curve"/>
    </contour>
  </outline>
</glyph>
<glyph name="ordmasculine" format="2">
  <advance width="932.2"/>
  <unicode hex="00BA"/>
  <outline>
    <contour>
      <point x="123" y="1124" type="curve"/>
      <point x="123" y="1043" type="line"/>
      <point x="123" y="837"/>
      <point x="255" y="691"/>
      <point x="467" y="691" type="curve" smooth="yes"/>
      <point x="677" y="691"/>
      <point x="808" y="837"/>
      <point x="808" y="1043" type="curve"/>
      <point x="808" y="1124" type="line"/>
      <point x="808" y="1330"/>
      <point x="677" y="1477"/>
      <point x="465" y="1477" type="curve" smooth="yes"/>
      <point x="255" y="1477"/>
      <point x="123" y="1330"/>
    </contour>
    <contour>
      <point x="287" y="1043" type="curve"/>
      <point x="287" y="1124" type="line"/>
      <point x="287" y="1244"/>
      <point x="345" y="1337"/>
      <point x="465" y="1337" type="curve" smooth="yes"/>
      <point x="586" y="1337"/>
      <point x="644" y="1244"/>
      <point x="644" y="1124" type="curve"/>
      <point x="644" y="1043" type="line"/>
      <point x="644" y="921"/>
      <point x="586" y="829"/>
      <point x="467" y="829" type="curve" smooth="yes"/>
      <point x="344" y="829"/>
      <point x="287" y="921"/>
    </contour>
  </outline>
</glyph>
<glyph name="questiondown" format="2">
  <advance width="970.24"/>
  <unicode hex="00BF"/>
  <outline>
    <contour>
      <point x="590" y="680" type="curve"/>
      <point x="403" y="680" type="line"/>
      <point x="403" y="582"/>
      <point x="384" y="500"/>
      <point x="313" y="431" type="curve"/>
      <point x="193" y="314"/>
      <point x="68" y="176"/>
      <point x="68" y="-6" type="curve" smooth="yes"/>
      <point x="68" y="-246"/>
      <point x="218" y="-386"/>
      <point x="478" y="-386" type="curve" smooth="yes"/>
      <point x="710" y="-386"/>
      <point x="887" y="-248"/>
      <point x="890" y="-20" type="curve"/>
      <point x="703" y="-20" type="line"/>
      <point x="702" y="-159"/>
      <point x="594" y="-225"/>
      <point x="478" y="-225" type="curve" smooth="yes"/>
      <point x="334" y="-225"/>
      <point x="255" y="-146"/>
      <point x="255" y="-1" type="curve" smooth="yes"/>
      <point x="255" y="138"/>
      <point x="335" y="208"/>
      <point x="420" y="299" type="curve" smooth="yes"/>
      <point x="543" y="433"/>
      <point x="588" y="489"/>
    </contour>
    <contour>
      <point x="597" y="939"/>
      <point x="597" y="998" type="curve" smooth="yes"/>
      <point x="597" y="1056"/>
      <point x="560" y="1102"/>
      <point x="488" y="1102" type="curve" smooth="yes"/>
      <point x="416" y="1102"/>
      <point x="377" y="1056"/>
      <point x="377" y="998" type="curve" smooth="yes"/>
      <point x="377" y="939"/>
      <point x="416" y="892"/>
      <point x="488" y="892" type="curve" smooth="yes"/>
      <point x="560" y="892"/>
    </contour>
  </outline>
</glyph>
<glyph name="AE" format="2">
  <advance width="1915.19"/>
  <unicode hex="00C6"/>
  <anchor x="938" y="1612" name="top"/>
  <anchor x="1915" y="1612" name="top0315"/>
  <anchor x="1915" y="1600" name="top_dd"/>
  <outline>
    <contour>
      <point x="213" y="0" type="line"/>
      <point x="970" y="1308" type="line"/>
      <point x="985" y="1456" type="line"/>
      <point x="865" y="1456" type="line"/>
      <point x="-16" y="0" type="line"/>
    </contour>
    <contour>
      <point x="1116" y="354" type="line"/>
      <point x="1116" y="527" type="line"/>
      <point x="372" y="527" type="line"/>
      <point x="372" y="354" type="line"/>
    </contour>
    <contour>
      <point x="1881" y="0" type="line"/>
      <point x="1881" y="150" type="line"/>
      <point x="1148" y="150" type="line"/>
      <point x="1148" y="0" type="line"/>
    </contour>
    <contour>
      <point x="1183" y="0" type="line"/>
      <point x="1122" y="1456" type="line"/>
      <point x="935" y="1456" type="line"/>
      <point x="996" y="0" type="line"/>
    </contour>
    <contour>
      <point x="1738" y="683" type="line"/>
      <point x="1738" y="833" type="line"/>
      <point x="1108" y="833" type="line"/>
      <point x="1108" y="683" type="line"/>
    </contour>
    <contour>
      <point x="1819" y="1306" type="line"/>
      <point x="1819" y="1456" type="line"/>
      <point x="1087" y="1456" type="line"/>
      <point x="1087" y="1306" type="line"/>
    </contour>
  </outline>
</glyph>
<glyph name="multiply" format="2">
  <advance width="1092.95"/>
  <unicode hex="00D7"/>
  <outline>
    <contour>
      <point x="89" y="326" type="line"/>
      <point x="209" y="204" type="line"/>
      <point x="988" y="998" type="line"/>
      <point x="868" y="1120" type="line"/>
    </contour>
    <contour>
      <point x="91" y="998" type="line"/>
      <point x="870" y="204" type="line"/>
      <point x="990" y="326" type="line"/>
      <point x="211" y="1120" type="line"/>
    </contour>
  </outline>
</glyph>
<glyph name="Oslash" format="2">
  <advance width="1409.5"/>
  <unicode hex="00D8"/>
  <anchor x="715" y="1674" name="top"/>
  <anchor x="1410" y="1674" name="top0315"/>
  <anchor x="1410" y="1600" name="top_dd"/>
  <outline>
    <contour>
      <point x="308" y="-93" type="line"/>
      <point x="1310" y="1516" type="line"/>
      <point x="1169" y="1516" type="line"/>
      <point x="164" y="-93" type="line"/>
    </contour>
    <component base="O"/>
  </outline>
</glyph>
<glyph name="Thorn" format="2">
  <advance width="1209.9"/>
  <unicode hex="00DE"/>
  <outline>
    <contour>
      <point x="353" y="1456" type="line"/>
      <point x="166" y="1456" type="line"/>
      <point x="166" y="0" type="line"/>
      <point x="353" y="0" type="line"/>
    </contour>
    <contour>
      <point x="630" y="1163" type="curve" smooth="yes"/>
      <point x="261" y="1163" type="line"/>
      <point x="351" y="1013" type="line"/>
      <point x="630" y="1013" type="line" smooth="yes"/>
      <point x="844" y="1013"/>
      <point x="931" y="876"/>
      <point x="931" y="736" type="curve" smooth="yes"/>
      <point x="931" y="600"/>
      <point x="844" y="464"/>
      <point x="630" y="464" type="curve" smooth="yes"/>
      <point x="312" y="464" type="line"/>
      <point x="312" y="314" type="line"/>
      <point x="630" y="314" type="line" smooth="yes"/>
      <point x="945" y="314"/>
      <point x="1118" y="494"/>
      <point x="1118" y="738" type="curve" smooth="yes"/>
      <point x="1118" y="983"/>
      <point x="945" y="1163"/>
    </contour>
  </outline>
</glyph>
<glyph name="germandbls" format="2">
  <advance width="1218.49"/>
  <unicode hex="00DF"/>
  <outline>
    <contour>
      <point x="325" y="0" type="line"/>
      <point x="325" y="1112" type="line"/>
      <point x="325" y="1313"/>
      <point x="406" y="1404"/>
      <point x="543" y="1404" type="curve" smooth="yes"/>
      <point x="652" y="1404"/>
      <point x="734" y="1335"/>
      <point x="734" y="1202" type="curve" smooth="yes"/>
      <point x="734" y="1048"/>
      <point x="596" y="983"/>
      <point x="596" y="822" type="curve" smooth="yes"/>
      <point x="596" y="551"/>
      <point x="944" y="498"/>
      <point x="944" y="308" type="curve" smooth="yes"/>
      <point x="944" y="209"/>
      <point x="882" y="130"/>
      <point x="726" y="130" type="curve" smooth="yes"/>
      <point x="634" y="130"/>
      <point x="535" y="177"/>
      <point x="489" y="206" type="curve"/>
      <point x="447" y="53" type="line"/>
      <point x="498" y="15"/>
      <point x="636" y="-20"/>
      <point x="746" y="-20" type="curve" smooth="yes"/>
      <point x="970" y="-20"/>
      <point x="1131" y="89"/>
      <point x="1131" y="317" type="curve" smooth="yes"/>
      <point x="1131" y="575"/>
      <point x="782" y="636"/>
      <point x="782" y="820" type="curve" smooth="yes"/>
      <point x="782" y="958"/>
      <point x="910" y="1003"/>
      <point x="910" y="1217" type="curve" smooth="yes"/>
      <point x="910" y="1448"/>
      <point x="751" y="1554"/>
      <point x="533" y="1554" type="curve" smooth="yes"/>
      <point x="299" y="1554"/>
      <point x="139" y="1404"/>
      <point x="139" y="1112" type="curve" smooth="yes"/>
      <point x="139" y="0" type="line"/>
    </contour>
  </outline>
</glyph>
<glyph name="divide" format="2">
  <advance width="1169.92"/>
  <unicode hex="00F7"/>
  <outline>
    <contour>
      <point x="1069" y="601" type="line"/>
      <point x="1069" y="784" type="line"/>
      <point x="71" y="784" type="line"/>
      <point x="71" y="601" type="line"/>
    </contour>
    <contour>
      <point x="461" y="1161"/>
      <point x="461" y="1098" type="curve" smooth="yes"/>
      <point x="461" y="1037"/>
      <point x="500" y="989"/>
      <point x="576" y="989" type="curve" smooth="yes"/>
      <point x="651" y="989"/>
      <point x="692" y="1037"/>
      <point x="692" y="1098" type="curve" smooth="yes"/>
      <point x="692" y="1161"/>
      <point x="651" y="1210"/>
      <point x="576" y="1210" type="curve" smooth="yes"/>
      <point x="500" y="1210"/>
    </contour>
    <contour>
      <point x="461" y="345"/>
      <point x="461" y="282" type="curve" smooth="yes"/>
      <point x="461" y="221"/>
      <point x="500" y="173"/>
      <point x="576" y="173" type="curve" smooth="yes"/>
      <point x="651" y="173"/>
      <point x="692" y="221"/>
      <point x="692" y="282" type="curve" smooth="yes"/>
      <point x="692" y="345"/>
      <point x="651" y="393"/>
      <point x="576" y="393" type="curve" smooth="yes"/>
      <point x="500" y="393"/>
    </contour>
  </outline>
</glyph>
<glyph name="oslash" format="2">
  <advance width="1161.04"/>
  <unicode hex="00F8"/>
  <anchor x="537" y="1289" name="top"/>
  <anchor x="1161" y="1289" name="top0315"/>
  <anchor x="1161" y="1600" name="top_dd"/>
  <outline>
    <contour>
      <point x="321" y="-135" type="line"/>
      <point x="984" y="1209" type="line"/>
      <point x="860" y="1209" type="line"/>
      <point x="197" y="-135" type="line"/>
    </contour>
    <component base="o"/>
  </outline>
</glyph>
<glyph name="OE" format="2">
  <advance width="1953.99"/>
  <unicode hex="0152"/>
  <anchor x="953" y="0" name="bottom"/>
  <anchor x="1953.99" y="-407" name="bottom_dd"/>
  <anchor x="953" y="1603" name="top"/>
  <anchor x="1954" y="1603" name="top0315"/>
  <anchor x="1953.99" y="1600" name="top_dd"/>
  <outline>
    <contour>
      <point x="762" y="1477"/>
      <point x="660" y="1477" type="curve" smooth="yes"/>
      <point x="329" y="1477"/>
      <point x="105" y="1233"/>
      <point x="105" y="880" type="curve"/>
      <point x="105" y="576" type="line"/>
      <point x="105" y="223"/>
      <point x="331" y="-21"/>
      <point x="662" y="-21" type="curve" smooth="yes"/>
      <point x="764" y="-21"/>
      <point x="864" y="-10"/>
      <point x="954" y="0" type="curve"/>
      <point x="954" y="157" type="line"/>
      <point x="867" y="141"/>
      <point x="766" y="129"/>
      <point x="662" y="129" type="curve" smooth="yes"/>
      <point x="436" y="129"/>
      <point x="292" y="285"/>
      <point x="292" y="576" type="curve"/>
      <point x="292" y="882" type="line"/>
      <point x="292" y="1172"/>
      <point x="434" y="1326"/>
      <point x="660" y="1326" type="curve" smooth="yes"/>
      <point x="765" y="1326"/>
      <point x="866" y="1315"/>
      <point x="954" y="1299" type="curve"/>
      <point x="954" y="1456" type="line"/>
      <point x="864" y="1467"/>
    </contour>
    <component base="E" xOffset="707"/>
  </outline>
</glyph>
<glyph name="oe" format="2">
  <advance width="1859.39"/>
  <unicode hex="0153"/>
  <anchor x="945" y="-1" name="bottom"/>
  <anchor x="1859" y="-407" name="bottom_dd"/>
  <anchor x="945" y="1290" name="top"/>
  <anchor x="1859" y="1290" name="top0315"/>
  <anchor x="1859" y="1600" name="top_dd"/>
  <outline>
    <contour>
      <point x="1078" y="-21"/>
      <point x="1378" y="-21" type="curve"/>
      <point x="1574" y="-21"/>
      <point x="1695" y="48"/>
      <point x="1760" y="113" type="curve"/>
      <point x="1687" y="238" type="line"/>
      <point x="1620" y="177"/>
      <point x="1524" y="130"/>
      <point x="1378" y="130" type="curve" smooth="yes"/>
      <point x="1178" y="130"/>
      <point x="1075" y="305"/>
      <point x="1075" y="520" type="curve" smooth="yes"/>
      <point x="1075" y="564" type="line" smooth="yes"/>
      <point x="1075" y="778"/>
      <point x="1189" y="952"/>
      <point x="1350" y="952" type="curve"/>
      <point x="1526" y="952"/>
      <point x="1604" y="821"/>
      <point x="1604" y="675" type="curve"/>
      <point x="1604" y="649" type="line"/>
      <point x="999" y="649" type="line"/>
      <point x="999" y="499" type="line"/>
      <point x="1791" y="499" type="line"/>
      <point x="1791" y="620" type="line" smooth="yes"/>
      <point x="1791" y="902"/>
      <point x="1648" y="1102"/>
      <point x="1350" y="1102" type="curve" smooth="yes"/>
      <point x="1106" y="1104"/>
      <point x="888" y="880"/>
      <point x="888" y="564" type="curve" smooth="yes"/>
      <point x="888" y="520" type="line" smooth="yes"/>
      <point x="888" y="205"/>
    </contour>
    <contour>
      <point x="97" y="552" type="curve"/>
      <point x="97" y="529" type="line"/>
      <point x="97" y="216"/>
      <point x="278" y="-21"/>
      <point x="582" y="-21" type="curve" smooth="yes"/>
      <point x="885" y="-21"/>
      <point x="1064" y="216"/>
      <point x="1064" y="529" type="curve"/>
      <point x="1064" y="552" type="line"/>
      <point x="1064" y="865"/>
      <point x="885" y="1102"/>
      <point x="580" y="1102" type="curve" smooth="yes"/>
      <point x="278" y="1102"/>
      <point x="97" y="865"/>
    </contour>
    <contour>
      <point x="284" y="529" type="curve"/>
      <point x="284" y="552" type="line"/>
      <point x="284" y="765"/>
      <point x="377" y="952"/>
      <point x="580" y="952" type="curve" smooth="yes"/>
      <point x="785" y="952"/>
      <point x="878" y="765"/>
      <point x="878" y="552" type="curve"/>
      <point x="878" y="529" type="line"/>
      <point x="878" y="314"/>
      <point x="785" y="130"/>
      <point x="582" y="130" type="curve" smooth="yes"/>
      <point x="377" y="130"/>
      <point x="284" y="314"/>
    </contour>
  </outline>
</glyph>
<glyph name="longs" format="2">
  <advance width="509.36"/>
  <unicode hex="017F"/>
  <anchor x="248" y="10" name="bottom"/>
  <anchor x="429" y="1753" name="top"/>
  <anchor x="509" y="1753" name="top0315"/>
  <outline>
    <contour>
      <point x="160" y="0" type="line"/>
      <point x="347" y="0" type="line"/>
      <point x="347" y="1197" type="line" smooth="yes"/>
      <point x="347" y="1328"/>
      <point x="411" y="1407"/>
      <point x="529" y="1407" type="curve" smooth="yes"/>
      <point x="567" y="1407"/>
      <point x="596" y="1402"/>
      <point x="620" y="1395" type="curve"/>
      <point x="643" y="1536" type="line"/>
      <point x="595" y="1548"/>
      <point x="548" y="1557"/>
      <point x="500" y="1557" type="curve" smooth="yes"/>
      <point x="289" y="1557"/>
      <point x="160" y="1429"/>
      <point x="160" y="1197" type="curve" smooth="yes"/>
    </contour>
  </outline>
</glyph>
<glyph name="circumflex" format="2">
  <advance width="966.17"/>
  <unicode hex="02C6"/>
  <anchor x="472" y="1290" name="_top"/>
  <anchor x="472" y="1637" name="mkmktop_acc"/>
  <outline>
    <contour>
      <point x="776" y="1263" type="line"/>
      <point x="528" y="1536" type="line"/>
      <point x="416" y="1536" type="line"/>
      <point x="170" y="1264" type="line"/>
      <point x="170" y="1253" type="line"/>
      <point x="323" y="1253" type="line"/>
      <point x="472" y="1423" type="line"/>
      <point x="622" y="1253" type="line"/>
      <point x="776" y="1253" type="line"/>
    </contour>
  </outline>
</glyph>
<glyph name="ring" format="2">
  <advance width="687.01"/>
  <unicode hex="02DA"/>
  <anchor x="337" y="1279" name="_top"/>
  <anchor x="337" y="1693" name="mkmktop_acc"/>
  <outline>
    <contour>
      <point x="121" y="1524"/>
      <point x="121" y="1408" type="curve"/>
      <point x="121" y="1292"/>
      <point x="214" y="1205"/>
      <point x="337" y="1205" type="curve" smooth="yes"/>
      <point x="458" y="1205"/>
      <point x="552" y="1292"/>
      <point x="552" y="1408" type="curve" smooth="yes"/>
      <point x="552" y="1524"/>
      <point x="458" y="1616"/>
      <point x="337" y="1616" type="curve" smooth="yes"/>
      <point x="214" y="1616"/>
    </contour>
    <contour>
      <point x="221" y="1349"/>
      <point x="221" y="1408" type="curve"/>
      <point x="221" y="1471"/>
      <point x="269" y="1527"/>
      <point x="337" y="1527" type="curve" smooth="yes"/>
      <point x="405" y="1527"/>
      <point x="453" y="1471"/>
      <point x="453" y="1408" type="curve" smooth="yes"/>
      <point x="453" y="1348"/>
      <point x="405" y="1293"/>
      <point x="337" y="1293" type="curve" smooth="yes"/>
      <point x="269" y="1293"/>
    </contour>
  </outline>
</glyph>
<glyph name="tilde" format="2">
  <advance width="968.06"/>
  <unicode hex="02DC"/>
  <anchor x="477" y="1286" name="_top"/>
  <anchor x="476" y="1597" name="mkmktop_acc"/>
  <outline>
    <contour>
      <point x="832" y="1500" type="curve"/>
      <point x="707" y="1512" type="line"/>
      <point x="707" y="1448"/>
      <point x="663" y="1399"/>
      <point x="607" y="1399" type="curve" smooth="yes"/>
      <point x="501" y="1399"/>
      <point x="452" y="1495"/>
      <point x="339" y="1495" type="curve" smooth="yes"/>
      <point x="217" y="1495"/>
      <point x="124" y="1394"/>
      <point x="124" y="1249" type="curve"/>
      <point x="249" y="1242" type="line"/>
      <point x="249" y="1305"/>
      <point x="292" y="1354"/>
      <point x="348" y="1354" type="curve" smooth="yes"/>
      <point x="459" y="1354"/>
      <point x="480" y="1259"/>
      <point x="616" y="1259" type="curve" smooth="yes"/>
      <point x="737" y="1259"/>
      <point x="832" y="1354"/>
    </contour>
  </outline>
</glyph>
<glyph name="gravecomb" format="2">
  <unicode hex="0300"/>
  <anchor x="-529" y="1290" name="_marktop"/>
  <anchor x="-529" y="1290" name="_top"/>
  <anchor x="-529" y="1640" name="mkmktop"/>
  <anchor x="-649" y="1389" name="parent_top"/>
  <outline>
    <contour>
      <point x="-440" y="1243" type="line"/>
      <point x="-633" y="1536" type="line"/>
      <point x="-859" y="1536" type="line"/>
      <point x="-600" y="1243" type="line"/>
    </contour>
  </outline>
</glyph>
<glyph name="alpha" format="2">
  <advance width="1158.1"/>
  <unicode hex="03B1"/>
  <anchor x="549" y="-10" name="bottom"/>
  <anchor x="625" y="1290" name="top"/>
  <anchor x="1158" y="1290" name="top0315"/>
  <outline>
    <contour>
      <point x="100" y="522" type="curve" smooth="yes"/>
      <point x="100" y="501" type="line"/>
      <point x="100" y="196"/>
      <point x="253" y="-21"/>
      <point x="521" y="-21" type="curve" smooth="yes"/>
      <point x="785" y="-21"/>
      <point x="912" y="179"/>
      <point x="941" y="497" type="curve"/>
      <point x="941" y="582" type="line"/>
      <point x="910" y="903"/>
      <point x="784" y="1102"/>
      <point x="523" y="1102" type="curve" smooth="yes"/>
      <point x="251" y="1102"/>
      <point x="100" y="863"/>
    </contour>
    <contour>
      <point x="287" y="501" type="curve" smooth="yes"/>
      <point x="287" y="522" type="line"/>
      <point x="287" y="755"/>
      <point x="367" y="952"/>
      <point x="569" y="952" type="curve" smooth="yes"/>
      <point x="764" y="952"/>
      <point x="845" y="758"/>
      <point x="878" y="563" type="curve"/>
      <point x="878" y="495" type="line"/>
      <point x="835" y="306"/>
      <point x="762" y="129"/>
      <point x="567" y="129" type="curve" smooth="yes"/>
      <point x="367" y="129"/>
      <point x="287" y="295"/>
    </contour>
    <contour>
      <point x="1007" y="1082" type="line"/>
      <point x="849" y="1082" type="line"/>
      <point x="820" y="847" type="line"/>
      <point x="820" y="295" type="line"/>
      <point x="820" y="67"/>
      <point x="895" y="-21"/>
      <point x="1020" y="-21" type="curve" smooth="yes"/>
      <point x="1063" y="-21"/>
      <point x="1102" y="-16"/>
      <point x="1144" y="13" type="curve"/>
      <point x="1121" y="149" type="line"/>
      <point x="1112" y="147"/>
      <point x="1100" y="144"/>
      <point x="1087" y="144" type="curve" smooth="yes"/>
      <point x="1044" y="144"/>
      <point x="1007" y="172"/>
      <point x="1007" y="295" type="curve" smooth="yes"/>
    </contour>
  </outline>
</glyph>
<glyph name="shevahebrew" format="2">
  <unicode hex="05B0"/>
  <anchor x="598" y="0" name="_bottom"/>
  <outline>
    <contour>
      <point x="597" y="-316" type="curve" smooth="yes"/>
      <point x="642" y="-316"/>
      <point x="675" y="-284"/>
      <point x="675" y="-243" type="curve" smooth="yes"/>
      <point x="675" y="-201"/>
      <point x="642" y="-170"/>
      <point x="597" y="-170" type="curve" smooth="yes"/>
      <point x="553" y="-170"/>
      <point x="519" y="-201"/>
      <point x="519" y="-243" type="curve" smooth="yes"/>
      <point x="519" y="-284"/>
      <point x="553" y="-316"/>
    </contour>
    <contour>
      <point x="597" y="-547" type="curve" smooth="yes"/>
      <point x="642" y="-547"/>
      <point x="675" y="-515"/>
      <point x="675" y="-474" type="curve" smooth="yes"/>
      <point x="675" y="-432"/>
      <point x="642" y="-401"/>
      <point x="597" y="-401" type="curve" smooth="yes"/>
      <point x="553" y="-401"/>
      <point x="519" y="-432"/>
      <point x="519" y="-474" type="curve" smooth="yes"/>
      <point x="519" y="-515"/>
      <point x="553" y="-547"/>
    </contour>
  </outline>
</glyph>
<glyph name="hatafsegolhebrew" format="2">
  <unicode hex="05B1"/>
  <anchor x="598" y="0" name="_bottom"/>
  <outline>
    <contour>
      <point x="369" y="-316" type="curve" smooth="yes"/>
      <point x="414" y="-316"/>
      <point x="447" y="-284"/>
      <point x="447" y="-243" type="curve" smooth="yes"/>
      <point x="447" y="-201"/>
      <point x="414" y="-170"/>
      <point x="369" y="-170" type="curve" smooth="yes"/>
      <point x="325" y="-170"/>
      <point x="291" y="-201"/>
      <point x="291" y="-243" type="curve" smooth="yes"/>
      <point x="291" y="-284"/>
      <point x="325" y="-316"/>
    </contour>
    <contour>
      <point x="597" y="-316" type="curve" smooth="yes"/>
      <point x="642" y="-316"/>
      <point x="675" y="-284"/>
      <point x="675" y="-243" type="curve" smooth="yes"/>
      <point x="675" y="-201"/>
      <point x="642" y="-170"/>
      <point x="597" y="-170" type="curve" smooth="yes"/>
      <point x="553" y="-170"/>
      <point x="519" y="-201"/>
      <point x="519" y="-243" type="curve" smooth="yes"/>
      <point x="519" y="-284"/>
      <point x="553" y="-316"/>
    </contour>
    <contour>
      <point x="828" y="-316" type="curve" smooth="yes"/>
      <point x="872" y="-316"/>
      <point x="905" y="-284"/>
      <point x="905" y="-243" type="curve" smooth="yes"/>
      <point x="905" y="-201"/>
      <point x="872" y="-170"/>
      <point x="828" y="-170" type="curve" smooth="yes"/>
      <point x="783" y="-170"/>
      <point x="749" y="-201"/>
      <point x="749" y="-243" type="curve" smooth="yes"/>
      <point x="749" y="-284"/>
      <point x="783" y="-316"/>
    </contour>
    <contour>
      <point x="484" y="-512" type="curve" smooth="yes"/>
      <point x="528" y="-512"/>
      <point x="562" y="-482"/>
      <point x="562" y="-440" type="curve" smooth="yes"/>
      <point x="562" y="-398"/>
      <point x="528" y="-366"/>
      <point x="484" y="-366" type="curve" smooth="yes"/>
      <point x="439" y="-366"/>
      <point x="405" y="-398"/>
      <point x="405" y="-440" type="curve" smooth="yes"/>
      <point x="405" y="-482"/>
      <point x="439" y="-512"/>
    </contour>
    <contour>
      <point x="828" y="-547" type="curve" smooth="yes"/>
      <point x="872" y="-547"/>
      <point x="905" y="-515"/>
      <point x="905" y="-474" type="curve" smooth="yes"/>
      <point x="905" y="-432"/>
      <point x="872" y="-401"/>
      <point x="828" y="-401" type="curve" smooth="yes"/>
      <point x="783" y="-401"/>
      <point x="749" y="-432"/>
      <point x="749" y="-474" type="curve" smooth="yes"/>
      <point x="749" y="-515"/>
      <point x="783" y="-547"/>
    </contour>
  </outline>
</glyph>
<glyph name="hatafpatahhebrew" format="2">
  <unicode hex="05B2"/>
  <anchor x="598" y="0" name="_bottom"/>
  <outline>
    <contour>
      <point x="301" y="-289" type="line"/>
      <point x="668" y="-289" type="line"/>
      <point x="668" y="-195" type="line"/>
      <point x="301" y="-195" type="line"/>
    </contour>
    <contour>
      <point x="818" y="-547" type="curve" smooth="yes"/>
      <point x="862" y="-547"/>
      <point x="896" y="-515"/>
      <point x="896" y="-474" type="curve" smooth="yes"/>
      <point x="896" y="-432"/>
      <point x="862" y="-401"/>
      <point x="818" y="-401" type="curve" smooth="yes"/>
      <point x="773" y="-401"/>
      <point x="739" y="-432"/>
      <point x="739" y="-474" type="curve" smooth="yes"/>
      <point x="739" y="-515"/>
      <point x="773" y="-547"/>
    </contour>
    <contour>
      <point x="818" y="-316" type="curve" smooth="yes"/>
      <point x="862" y="-316"/>
      <point x="896" y="-284"/>
      <point x="896" y="-243" type="curve" smooth="yes"/>
      <point x="896" y="-201"/>
      <point x="862" y="-170"/>
      <point x="818" y="-170" type="curve" smooth="yes"/>
      <point x="773" y="-170"/>
      <point x="739" y="-201"/>
      <point x="739" y="-243" type="curve" smooth="yes"/>
      <point x="739" y="-284"/>
      <point x="773" y="-316"/>
    </contour>
  </outline>
</glyph>
<glyph name="hiriqhebrew" format="2">
  <unicode hex="05B4"/>
  <anchor x="598" y="0" name="_bottom"/>
  <outline>
    <contour>
      <point x="597" y="-316" type="curve" smooth="yes"/>
      <point x="642" y="-316"/>
      <point x="675" y="-284"/>
      <point x="675" y="-243" type="curve" smooth="yes"/>
      <point x="675" y="-201"/>
      <point x="642" y="-170"/>
      <point x="597" y="-170" type="curve" smooth="yes"/>
      <point x="553" y="-170"/>
      <point x="519" y="-201"/>
      <point x="519" y="-243" type="curve" smooth="yes"/>
      <point x="519" y="-281"/>
      <point x="553" y="-316"/>
    </contour>
  </outline>
</glyph>
<glyph name="tserehebrew" format="2">
  <unicode hex="05B5"/>
  <anchor x="598" y="0" name="_bottom"/>
  <outline>
    <contour>
      <point x="711" y="-316" type="curve" smooth="yes"/>
      <point x="756" y="-316"/>
      <point x="789" y="-284"/>
      <point x="789" y="-243" type="curve" smooth="yes"/>
      <point x="789" y="-201"/>
      <point x="756" y="-170"/>
      <point x="711" y="-170" type="curve" smooth="yes"/>
      <point x="667" y="-170"/>
      <point x="632" y="-201"/>
      <point x="632" y="-243" type="curve" smooth="yes"/>
      <point x="632" y="-281"/>
      <point x="667" y="-316"/>
    </contour>
    <contour>
      <point x="484" y="-316" type="curve" smooth="yes"/>
      <point x="528" y="-316"/>
      <point x="562" y="-284"/>
      <point x="562" y="-243" type="curve" smooth="yes"/>
      <point x="562" y="-201"/>
      <point x="528" y="-170"/>
      <point x="484" y="-170" type="curve" smooth="yes"/>
      <point x="439" y="-170"/>
      <point x="405" y="-201"/>
      <point x="405" y="-243" type="curve" smooth="yes"/>
      <point x="405" y="-281"/>
      <point x="439" y="-316"/>
    </contour>
  </outline>
</glyph>
<glyph name="qamatshebrew" format="2">
  <unicode hex="05B8"/>
  <anchor x="598" y="0" name="_bottom"/>
  <outline>
    <contour>
      <point x="600" y="-535" type="curve" smooth="yes"/>
      <point x="644" y="-535"/>
      <point x="678" y="-503"/>
      <point x="678" y="-462" type="curve" smooth="yes"/>
      <point x="678" y="-412"/>
      <point x="639" y="-408"/>
      <point x="631" y="-289" type="curve"/>
      <point x="786" y="-289" type="line"/>
      <point x="786" y="-195" type="line"/>
      <point x="409" y="-195" type="line"/>
      <point x="409" y="-289" type="line"/>
      <point x="568" y="-289" type="line"/>
      <point x="561" y="-408"/>
      <point x="521" y="-412"/>
      <point x="521" y="-462" type="curve" smooth="yes"/>
      <point x="521" y="-500"/>
      <point x="555" y="-535"/>
    </contour>
  </outline>
</glyph>
<glyph name="holamhebrew" format="2">
  <unicode hex="05B9"/>
  <anchor x="261" y="1178" name="_topleft"/>
  <outline>
    <contour>
      <point x="261" y="1331" type="curve" smooth="yes"/>
      <point x="306" y="1331"/>
      <point x="340" y="1361"/>
      <point x="340" y="1403" type="curve" smooth="yes"/>
      <point x="340" y="1445"/>
      <point x="306" y="1476"/>
      <point x="261" y="1476" type="curve" smooth="yes"/>
      <point x="216" y="1476"/>
      <point x="182" y="1445"/>
      <point x="182" y="1403" type="curve" smooth="yes"/>
      <point x="182" y="1365"/>
      <point x="216" y="1331"/>
    </contour>
  </outline>
</glyph>
<glyph name="dageshhebrew" format="2">
  <unicode hex="05BC"/>
  <anchor x="316" y="599" name="_center"/>
  <outline>
    <contour>
      <point x="316" y="525" type="curve" smooth="yes"/>
      <point x="361" y="525"/>
      <point x="395" y="557"/>
      <point x="395" y="599" type="curve" smooth="yes"/>
      <point x="395" y="640"/>
      <point x="361" y="672"/>
      <point x="316" y="672" type="curve" smooth="yes"/>
      <point x="272" y="672"/>
      <point x="238" y="640"/>
      <point x="238" y="599" type="curve" smooth="yes"/>
      <point x="238" y="560"/>
      <point x="272" y="525"/>
    </contour>
  </outline>
</glyph>
<glyph name="shindothebrew" format="2">
  <unicode hex="05C1"/>
  <anchor x="0" y="1178" name="_topright"/>
  <outline>
    <contour>
      <point x="1328" y="1331" type="curve" smooth="yes"/>
      <point x="1372" y="1331"/>
      <point x="1406" y="1361"/>
      <point x="1406" y="1403" type="curve" smooth="yes"/>
      <point x="1406" y="1445"/>
      <point x="1372" y="1476"/>
      <point x="1328" y="1476" type="curve" smooth="yes"/>
      <point x="1283" y="1476"/>
      <point x="1249" y="1445"/>
      <point x="1249" y="1403" type="curve" smooth="yes"/>
      <point x="1249" y="1365"/>
      <point x="1283" y="1331"/>
    </contour>
  </outline>
</glyph>
<glyph name="qamatsqatanhebrew" format="2">
  <unicode hex="05C7"/>
  <anchor x="598" y="0" name="_bottom"/>
  <outline>
    <contour>
      <point x="600" y="-565" type="curve" smooth="yes"/>
      <point x="644" y="-565"/>
      <point x="678" y="-533"/>
      <point x="678" y="-492" type="curve" smooth="yes"/>
      <point x="678" y="-456"/>
      <point x="658" y="-431"/>
      <point x="644" y="-383" type="curve" smooth="yes"/>
      <point x="639" y="-365"/>
      <point x="632" y="-323"/>
      <point x="631" y="-289" type="curve"/>
      <point x="786" y="-289" type="line"/>
      <point x="786" y="-195" type="line"/>
      <point x="409" y="-195" type="line"/>
      <point x="409" y="-289" type="line"/>
      <point x="568" y="-289" type="line"/>
      <point x="567" y="-323"/>
      <point x="562" y="-365"/>
      <point x="556" y="-384" type="curve" smooth="yes"/>
      <point x="541" y="-431"/>
      <point x="521" y="-456"/>
      <point x="521" y="-492" type="curve" smooth="yes"/>
      <point x="521" y="-530"/>
      <point x="555" y="-565"/>
    </contour>
  </outline>
</glyph>
<glyph name="bethebrew" format="2">
  <advance width="1078.69"/>
  <unicode hex="05D1"/>
  <anchor x="533" y="0" name="bottom"/>
  <anchor x="381" y="603" name="center"/>
  <anchor x="483" y="1178" name="top"/>
  <anchor x="16" y="1178" name="topleft"/>
  <outline>
    <contour>
      <point x="61" y="0" type="line"/>
      <point x="1029" y="0" type="line"/>
      <point x="1029" y="142" type="line"/>
      <point x="886" y="157" type="line"/>
      <point x="701" y="150" type="line"/>
      <point x="61" y="150" type="line"/>
    </contour>
    <contour>
      <point x="701" y="42" type="line"/>
      <point x="886" y="42" type="line"/>
      <point x="886" y="734" type="line" smooth="yes"/>
      <point x="886" y="1028"/>
      <point x="727" y="1178"/>
      <point x="420" y="1178" type="curve" smooth="yes"/>
      <point x="125" y="1178" type="line"/>
      <point x="125" y="1029" type="line"/>
      <point x="410" y="1029" type="line" smooth="yes"/>
      <point x="615" y="1029"/>
      <point x="701" y="943"/>
      <point x="701" y="739" type="curve" smooth="yes"/>
    </contour>
  </outline>
</glyph>
<glyph name="dalethebrew" format="2">
  <advance width="1066.91"/>
  <unicode hex="05D3"/>
  <anchor x="714" y="0" name="bottom"/>
  <anchor x="322" y="603" name="center"/>
  <anchor x="532" y="1178" name="top"/>
  <anchor x="2" y="1178" name="topleft"/>
  <outline>
    <contour>
      <point x="60" y="1178" type="line"/>
      <point x="60" y="1029" type="line"/>
      <point x="620" y="1029" type="line"/>
      <point x="620" y="0" type="line"/>
      <point x="806" y="0" type="line"/>
      <point x="806" y="1029" type="line"/>
      <point x="1003" y="1029" type="line"/>
      <point x="1003" y="1178" type="line"/>
    </contour>
  </outline>
</glyph>
<glyph name="hehebrew" format="2">
  <advance width="1204.41"/>
  <unicode hex="05D4"/>
  <anchor x="599" y="0" name="bottom"/>
  <anchor x="599" y="603" name="center"/>
  <anchor x="592" y="1178" name="top"/>
  <anchor x="10" y="1178" name="topleft"/>
  <outline>
    <contour>
      <point x="866" y="0" type="line"/>
      <point x="1052" y="0" type="line"/>
      <point x="1052" y="734" type="line"/>
      <point x="1052" y="1028"/>
      <point x="892" y="1178"/>
      <point x="584" y="1178" type="curve" smooth="yes"/>
      <point x="148" y="1178" type="line"/>
      <point x="148" y="1029" type="line"/>
      <point x="575" y="1029" type="line" smooth="yes"/>
      <point x="779" y="1029"/>
      <point x="866" y="943"/>
      <point x="866" y="739" type="curve"/>
    </contour>
    <contour>
      <point x="150" y="0" type="line"/>
      <point x="330" y="0" type="line"/>
      <point x="330" y="414" type="line" smooth="yes"/>
      <point x="330" y="522"/>
      <point x="338" y="591"/>
      <point x="354" y="651" type="curve"/>
      <point x="202" y="651" type="line"/>
      <point x="178" y="600"/>
      <point x="150" y="539"/>
      <point x="150" y="402" type="curve" smooth="yes"/>
    </contour>
  </outline>
</glyph>
<glyph name="vavhebrew" format="2">
  <advance width="603.54"/>
  <unicode hex="05D5"/>
  <anchor x="332" y="0" name="bottom"/>
  <anchor x="71" y="603" name="center"/>
  <anchor x="268" y="1178" name="top"/>
  <anchor x="263" y="1178" name="topleft"/>
  <outline>
    <contour>
      <point x="237" y="0" type="line"/>
      <point x="423" y="0" type="line"/>
      <point x="423" y="1178" type="line"/>
      <point x="100" y="1178" type="line"/>
      <point x="100" y="1029" type="line"/>
      <point x="237" y="1029" type="line"/>
    </contour>
  </outline>
</glyph>
<glyph name="hethebrew" format="2">
  <advance width="1242.69"/>
  <unicode hex="05D7"/>
  <anchor x="638" y="0" name="bottom"/>
  <anchor x="638" y="603" name="center"/>
  <anchor x="626" y="1178" name="top"/>
  <anchor x="46" y="1178" name="topleft"/>
  <outline>
    <contour>
      <point x="181" y="0" type="line"/>
      <point x="366" y="0" type="line"/>
      <point x="367" y="1029" type="line"/>
      <point x="627" y="1029" type="line" smooth="yes"/>
      <point x="822" y="1029"/>
      <point x="905" y="942"/>
      <point x="905" y="738" type="curve" smooth="yes"/>
      <point x="905" y="0" type="line"/>
      <point x="1090" y="0" type="line"/>
      <point x="1090" y="727" type="line"/>
      <point x="1089" y="1031"/>
      <point x="937" y="1178"/>
      <point x="625" y="1178" type="curve" smooth="yes"/>
      <point x="182" y="1178" type="line"/>
    </contour>
  </outline>
</glyph>
<glyph name="finalkafhebrew" format="2">
  <advance width="1014.07"/>
  <unicode hex="05DA"/>
  <anchor x="268" y="540" name="bottom"/>
  <anchor x="329" y="603" name="center"/>
  <anchor x="449" y="1178" name="top"/>
  <anchor x="2" y="1178" name="topleft"/>
  <outline>
    <contour>
      <point x="651" y="-416" type="line"/>
      <point x="834" y="-416" type="line"/>
      <point x="834" y="1178" type="line"/>
      <point x="65" y="1178" type="line"/>
      <point x="65" y="1029" type="line"/>
      <point x="651" y="1029" type="line"/>
    </contour>
  </outline>
</glyph>
<glyph name="lamedhebrew" format="2">
  <advance width="1052.04"/>
  <unicode hex="05DC"/>
  <anchor x="453" y="0" name="bottom"/>
  <anchor x="310" y="678" name="center"/>
  <anchor x="636" y="1178" name="top"/>
  <anchor x="-36" y="1374" name="topleft"/>
  <outline>
    <contour>
      <point x="83" y="1029" type="line"/>
      <point x="908" y="1029" type="line"/>
      <point x="908" y="1178" type="line"/>
      <point x="268" y="1178" type="line"/>
      <point x="268" y="1536" type="line"/>
      <point x="83" y="1536" type="line"/>
    </contour>
    <contour>
      <point x="978" y="1061" type="line"/>
      <point x="978" y="1178" type="line"/>
      <point x="836" y="1178" type="line"/>
      <point x="347" y="0" type="line"/>
      <point x="546" y="0" type="line"/>
    </contour>
  </outline>
</glyph>
<glyph name="finalnunhebrew" format="2">
  <advance width="588.98"/>
  <unicode hex="05DF"/>
  <anchor x="-126" y="577" name="bottom"/>
  <anchor x="51" y="603" name="center"/>
  <anchor x="253" y="1178" name="top"/>
  <anchor x="1" y="1178" name="topleft"/>
  <outline>
    <contour>
      <point x="225" y="-416" type="line"/>
      <point x="408" y="-416" type="line"/>
      <point x="408" y="1178" type="line"/>
      <point x="86" y="1178" type="line"/>
      <point x="86" y="1029" type="line"/>
      <point x="225" y="1029" type="line"/>
    </contour>
  </outline>
</glyph>
<glyph name="samekhhebrew" format="2">
  <advance width="1305.44"/>
  <unicode hex="05E1"/>
  <anchor x="678" y="0" name="bottom"/>
  <anchor x="669" y="603" name="center"/>
  <anchor x="638" y="1178" name="top"/>
  <anchor x="35" y="1178" name="topleft"/>
  <outline>
    <contour>
      <point x="668" y="-22" type="curve" smooth="yes"/>
      <point x="967" y="-22"/>
      <point x="1166" y="194"/>
      <point x="1166" y="519" type="curve" smooth="yes"/>
      <point x="1166" y="660" type="line" smooth="yes"/>
      <point x="1166" y="999"/>
      <point x="967" y="1200"/>
      <point x="638" y="1200" type="curve" smooth="yes"/>
      <point x="473" y="1200"/>
      <point x="259" y="1169"/>
      <point x="103" y="1123" type="curve"/>
      <point x="139" y="983" type="line"/>
      <point x="213" y="1003"/>
      <point x="299" y="1026"/>
      <point x="350" y="1032" type="curve"/>
      <point x="351" y="1029" type="line"/>
      <point x="345" y="1027"/>
      <point x="341" y="1024"/>
      <point x="337" y="1021" type="curve" smooth="yes"/>
      <point x="241" y="956"/>
      <point x="169" y="795"/>
      <point x="170" y="639" type="curve" smooth="yes"/>
      <point x="170" y="519" type="line" smooth="yes"/>
      <point x="173" y="194"/>
      <point x="373" y="-22"/>
    </contour>
    <contour>
      <point x="668" y="135" type="curve" smooth="yes"/>
      <point x="481" y="135"/>
      <point x="356" y="288"/>
      <point x="356" y="518" type="curve" smooth="yes"/>
      <point x="356" y="649" type="line" smooth="yes"/>
      <point x="361" y="894"/>
      <point x="477" y="1044"/>
      <point x="657" y="1044" type="curve" smooth="yes"/>
      <point x="857" y="1044"/>
      <point x="982" y="897"/>
      <point x="982" y="658" type="curve" smooth="yes"/>
      <point x="982" y="518" type="line" smooth="yes"/>
      <point x="982" y="288"/>
      <point x="856" y="135"/>
    </contour>
  </outline>
</glyph>
<glyph name="ayinhebrew" format="2">
  <advance width="1185.37"/>
  <unicode hex="05E2"/>
  <anchor x="562" y="0" name="bottom"/>
  <anchor x="618" y="658" name="center"/>
  <anchor x="569" y="1178" name="top"/>
  <anchor x="19" y="1178" name="topleft"/>
  <outline>
    <contour>
      <point x="480" y="-25" type="curve" smooth="yes"/>
      <point x="790" y="-25"/>
      <point x="1004" y="148"/>
      <point x="1004" y="472" type="curve" smooth="yes"/>
      <point x="1004" y="1178" type="line"/>
      <point x="819" y="1178" type="line"/>
      <point x="819" y="465" type="line" smooth="yes"/>
      <point x="819" y="239"/>
      <point x="674" y="118"/>
      <point x="457" y="118" type="curve" smooth="yes"/>
      <point x="357" y="119"/>
      <point x="239" y="144"/>
      <point x="106" y="196" type="curve"/>
      <point x="61" y="58" type="line"/>
      <point x="216" y="-1"/>
      <point x="357" y="-25"/>
    </contour>
    <contour>
      <point x="125" y="1178" type="line"/>
      <point x="320" y="319" type="line" smooth="yes"/>
      <point x="343" y="215"/>
      <point x="391" y="146"/>
      <point x="447" y="89" type="curve"/>
      <point x="593" y="86" type="line"/>
      <point x="546" y="145"/>
      <point x="523" y="209"/>
      <point x="502" y="309" type="curve" smooth="yes"/>
      <point x="311" y="1178" type="line"/>
    </contour>
  </outline>
</glyph>
<glyph name="finalpehebrew" format="2">
  <advance width="1215.11"/>
  <unicode hex="05E3"/>
  <anchor x="410" y="448" name="bottom"/>
  <anchor x="617" y="780" name="center"/>
  <anchor x="598" y="1178" name="top"/>
  <anchor x="46" y="1178" name="topleft"/>
  <outline>
    <contour>
      <point x="1034" y="1178" type="line"/>
      <point x="143" y="1178" type="line"/>
      <point x="143" y="1029" type="line"/>
      <point x="286" y="1029" type="line"/>
      <point x="227" y="945"/>
      <point x="188" y="802"/>
      <point x="191" y="667" type="curve" smooth="yes"/>
      <point x="194" y="470" type="line"/>
      <point x="289" y="419"/>
      <point x="366" y="403"/>
      <point x="532" y="403" type="curve"/>
      <point x="532" y="563" type="line"/>
      <point x="453" y="563"/>
      <point x="406" y="568"/>
      <point x="375" y="581" type="curve"/>
      <point x="375" y="717" type="line" smooth="yes"/>
      <point x="375" y="827"/>
      <point x="404" y="955"/>
      <point x="447" y="1029" type="curve"/>
      <point x="851" y="1029" type="line"/>
      <point x="851" y="-416" type="line"/>
      <point x="1034" y="-416" type="line"/>
    </contour>
  </outline>
</glyph>
<glyph name="finaltsadihebrew" format="2">
  <advance width="1096.18"/>
  <unicode hex="05E5"/>
  <anchor x="216" y="359" name="bottom"/>
  <anchor x="327" y="383" name="center"/>
  <anchor x="557" y="1178" name="top"/>
  <anchor x="-1" y="1178" name="topleft"/>
  <outline>
    <contour>
      <point x="595" y="-416" type="line"/>
      <point x="770" y="-416" type="line"/>
      <point x="770" y="297" type="line" smooth="yes"/>
      <point x="770" y="383"/>
      <point x="753" y="448"/>
      <point x="713" y="506" type="curve" smooth="yes"/>
      <point x="617" y="644" type="line"/>
      <point x="268" y="1178" type="line"/>
      <point x="59" y="1178" type="line"/>
      <point x="557" y="449" type="line" smooth="yes"/>
      <point x="583" y="411"/>
      <point x="595" y="368"/>
      <point x="595" y="314" type="curve" smooth="yes"/>
    </contour>
    <contour>
      <point x="660" y="489" type="line"/>
      <point x="1052" y="1178" type="line"/>
      <point x="843" y="1178" type="line"/>
      <point x="545" y="638" type="line"/>
    </contour>
  </outline>
</glyph>
<glyph name="qofhebrew" format="2">
  <advance width="1272.56"/>
  <unicode hex="05E7"/>
  <anchor x="753" y="0" name="bottom"/>
  <anchor x="638" y="603" name="center"/>
  <anchor x="636" y="1178" name="top"/>
  <anchor x="39" y="1178" name="topleft"/>
  <outline>
    <contour>
      <point x="577" y="0" type="line"/>
      <point x="887" y="7"/>
      <point x="1092" y="187"/>
      <point x="1092" y="486" type="curve" smooth="yes"/>
      <point x="1092" y="1178" type="line"/>
      <point x="179" y="1178" type="line"/>
      <point x="179" y="1029" type="line"/>
      <point x="906" y="1029" type="line"/>
      <point x="906" y="482" type="line" smooth="yes"/>
      <point x="906" y="275"/>
      <point x="774" y="152"/>
      <point x="577" y="146" type="curve"/>
    </contour>
    <contour>
      <point x="202" y="-416" type="line"/>
      <point x="382" y="-416" type="line"/>
      <point x="382" y="453" type="line" smooth="yes"/>
      <point x="382" y="561"/>
      <point x="389" y="629"/>
      <point x="406" y="689" type="curve"/>
      <point x="254" y="689" type="line"/>
      <point x="230" y="638"/>
      <point x="202" y="577"/>
      <point x="202" y="442" type="curve" smooth="yes"/>
    </contour>
  </outline>
</glyph>
<glyph name="shinhebrew" format="2">
  <advance width="1625.98"/>
  <unicode hex="05E9"/>
  <anchor x="799" y="0" name="bottom"/>
  <anchor x="1082" y="603" name="center"/>
  <anchor x="808" y="1178" name="top"/>
  <anchor x="26" y="1178" name="topleft"/>
  <anchor x="21" y="1178" name="topright"/>
  <outline>
    <contour>
      <point x="361" y="1178" type="line"/>
      <point x="181" y="1178" type="line"/>
      <point x="181" y="108" type="line"/>
      <point x="369" y="18"/>
      <point x="582" y="-28"/>
      <point x="774" y="-28" type="curve" smooth="yes"/>
      <point x="1139" y="-28"/>
      <point x="1445" y="137"/>
      <point x="1445" y="481" type="curve" smooth="yes"/>
      <point x="1445" y="1178" type="line"/>
      <point x="1265" y="1178" type="line"/>
      <point x="1265" y="498" type="line" smooth="yes"/>
      <point x="1265" y="241"/>
      <point x="1046" y="122"/>
      <point x="765" y="122" type="curve" smooth="yes"/>
      <point x="636" y="122"/>
      <point x="488" y="155"/>
      <point x="361" y="209" type="curve"/>
    </contour>
    <contour>
      <point x="644" y="325" type="curve"/>
      <point x="798" y="319" type="line"/>
      <point x="868" y="390"/>
      <point x="900" y="490"/>
      <point x="900" y="625" type="curve" smooth="yes"/>
      <point x="900" y="1178" type="line"/>
      <point x="719" y="1178" type="line"/>
      <point x="719" y="592" type="line" smooth="yes"/>
      <point x="719" y="472"/>
      <point x="694" y="378"/>
    </contour>
  </outline>
</glyph>
<glyph name="gereshhebrew" format="2">
  <advance width="343.12"/>
  <unicode hex="05F3"/>
  <outline>
    <contour>
      <point x="127" y="899" type="line"/>
      <point x="215" y="980"/>
      <point x="277" y="1109"/>
      <point x="277" y="1244" type="curve"/>
      <point x="278" y="1425" type="line"/>
      <point x="109" y="1425" type="line"/>
      <point x="109" y="1230" type="line"/>
      <point x="109" y="1128"/>
      <point x="76" y="1034"/>
      <point x="15" y="952" type="curve"/>
    </contour>
  </outline>
</glyph>
<glyph name="gershayimhebrew" format="2">
  <advance width="672.35"/>
  <unicode hex="05F4"/>
  <outline>
    <contour>
      <point x="140" y="899" type="line"/>
      <point x="227" y="980"/>
      <point x="290" y="1109"/>
      <point x="290" y="1244" type="curve"/>
      <point x="290" y="1425" type="line"/>
      <point x="121" y="1425" type="line"/>
      <point x="121" y="1230" type="line"/>
      <point x="121" y="1128"/>
      <point x="89" y="1034"/>
      <point x="27" y="952" type="curve"/>
    </contour>
    <contour>
      <point x="442" y="899" type="line"/>
      <point x="529" y="980"/>
      <point x="591" y="1109"/>
      <point x="591" y="1244" type="curve"/>
      <point x="592" y="1425" type="line"/>
      <point x="423" y="1425" type="line"/>
      <point x="423" y="1230" type="line"/>
      <point x="423" y="1128"/>
      <point x="391" y="1034"/>
      <point x="329" y="952" type="curve"/>
    </contour>
  </outline>
</glyph>
<glyph name="Germandbls" format="2">
  <advance width="1323.18"/>
  <unicode hex="1E9E"/>
  <outline>
    <contour>
      <point x="329" y="0" type="line"/>
      <point x="329" y="962" type="line"/>
      <point x="143" y="962" type="line"/>
      <point x="143" y="0" type="line"/>
    </contour>
    <contour>
      <point x="143" y="960" type="curve"/>
      <point x="329" y="960" type="line"/>
      <point x="329" y="1158"/>
      <point x="374" y="1326"/>
      <point x="593" y="1326" type="curve" smooth="yes"/>
      <point x="728" y="1326"/>
      <point x="811" y="1276"/>
      <point x="875" y="1224" type="curve"/>
      <point x="568" y="851" type="line"/>
      <point x="568" y="733" type="line"/>
      <point x="671" y="733" type="line"/>
      <point x="1096" y="1252" type="line"/>
      <point x="966" y="1376"/>
      <point x="810" y="1476"/>
      <point x="593" y="1476" type="curve" smooth="yes"/>
      <point x="288" y="1476"/>
      <point x="143" y="1301"/>
    </contour>
    <contour>
      <point x="512" y="181" type="curve"/>
      <point x="458" y="29" type="line"/>
      <point x="552" y="-6"/>
      <point x="646" y="-21"/>
      <point x="739" y="-21" type="curve" smooth="yes"/>
      <point x="1027" y="-21"/>
      <point x="1231" y="135"/>
      <point x="1231" y="408" type="curve" smooth="yes"/>
      <point x="1231" y="689"/>
      <point x="1045" y="847"/>
      <point x="719" y="847" type="curve" smooth="yes"/>
      <point x="568" y="847" type="line"/>
      <point x="568" y="701" type="line"/>
      <point x="715" y="701" type="line" smooth="yes"/>
      <point x="933" y="701"/>
      <point x="1045" y="610"/>
      <point x="1045" y="404" type="curve" smooth="yes"/>
      <point x="1045" y="243"/>
      <point x="932" y="130"/>
      <point x="739" y="130" type="curve" smooth="yes"/>
      <point x="643" y="130"/>
      <point x="567" y="155"/>
    </contour>
  </outline>
</glyph>
<glyph name="afii61664" format="2">
  <unicode hex="200C"/>
  <outline>
    <contour>
      <point x="-644" y="1275" type="line"/>
      <point x="-644" y="-200" type="line"/>
      <point x="-527" y="-200" type="line"/>
      <point x="-527" y="1275" type="line"/>
    </contour>
  </outline>
</glyph>
<glyph name="afii57598" format="2">
  <unicode hex="200D"/>
  <outline>
    <contour>
      <point x="-646" y="1271" type="line"/>
      <point x="-646" y="-200" type="line"/>
      <point x="-530" y="-200" type="line"/>
      <point x="-530" y="1271" type="line"/>
    </contour>
    <contour>
      <point x="-403" y="955" type="line"/>
      <point x="-316" y="1042" type="line"/>
      <point x="-765" y="1500" type="line"/>
      <point x="-852" y="1413" type="line"/>
    </contour>
    <contour>
      <point x="-852" y="1042" type="line"/>
      <point x="-764" y="955" type="line"/>
      <point x="-316" y="1413" type="line"/>
      <point x="-402" y="1500" type="line"/>
    </contour>
  </outline>
</glyph>
<glyph name="afii300" format="2">
  <unicode hex="200F"/>
  <outline>
    <contour>
      <point x="-268" y="1275" type="line"/>
      <point x="-268" y="1158" type="line"/>
      <point x="-758" y="1158" type="line"/>
      <point x="-758" y="1275" type="line"/>
    </contour>
    <contour>
      <point x="-463" y="994" type="line"/>
      <point x="-628" y="994" type="line"/>
      <point x="-876" y="1216" type="line"/>
      <point x="-784" y="1271" type="line"/>
    </contour>
    <contour>
      <point x="-638" y="1456" type="line"/>
      <point x="-472" y="1456" type="line"/>
      <point x="-780" y="1165" type="line"/>
      <point x="-876" y="1216" type="line"/>
    </contour>
    <contour>
      <point x="-268" y="1275" type="line"/>
      <point x="-268" y="-200" type="line"/>
      <point x="-385" y="-200" type="line"/>
      <point x="-385" y="1275" type="line"/>
    </contour>
  </outline>
</glyph>
<glyph name="quoteright" format="2">
  <advance width="411"/>
  <unicode hex="2019"/>
  <anchor x="72" y="1536" name="_caron"/>
  <outline>
    <contour>
      <point x="329" y="1408" type="curve" smooth="yes"/>
      <point x="329" y="1536" type="line"/>
      <point x="144" y="1536" type="line"/>
      <point x="144" y="1406" type="line" smooth="yes"/>
      <point x="144" y="1297"/>
      <point x="111" y="1207"/>
      <point x="48" y="1119" type="curve"/>
      <point x="154" y="1047" type="line"/>
      <point x="265" y="1138"/>
      <point x="329" y="1287"/>
    </contour>
  </outline>
</glyph>
<glyph name="quotedblbase" format="2">
  <advance width="708.5"/>
  <unicode hex="201E"/>
  <outline>
    <contour>
      <point x="317" y="79" type="curve" smooth="yes"/>
      <point x="317" y="246" type="line"/>
      <point x="131" y="246" type="line"/>
      <point x="131" y="76" type="line" smooth="yes"/>
      <point x="131" y="-39"/>
      <point x="99" y="-135"/>
      <point x="36" y="-228" type="curve"/>
      <point x="142" y="-300" type="line"/>
      <point x="253" y="-205"/>
      <point x="317" y="-48"/>
    </contour>
    <contour>
      <point x="615" y="79" type="curve" smooth="yes"/>
      <point x="615" y="246" type="line"/>
      <point x="428" y="246" type="line"/>
      <point x="428" y="76" type="line" smooth="yes"/>
      <point x="428" y="-39"/>
      <point x="396" y="-135"/>
      <point x="334" y="-228" type="curve"/>
      <point x="440" y="-300" type="line"/>
      <point x="551" y="-205"/>
      <point x="615" y="-48"/>
    </contour>
  </outline>
</glyph>
<glyph name="bullet" format="2">
  <advance width="691.42"/>
  <unicode hex="2022"/>
  <outline>
    <contour>
      <point x="139" y="772" type="curve"/>
      <point x="139" y="732" type="line"/>
      <point x="139" y="617"/>
      <point x="217" y="536"/>
      <point x="343" y="536" type="curve" smooth="yes"/>
      <point x="470" y="536"/>
      <point x="547" y="617"/>
      <point x="547" y="732" type="curve"/>
      <point x="547" y="772" type="line"/>
      <point x="547" y="887"/>
      <point x="470" y="970"/>
      <point x="342" y="970" type="curve" smooth="yes"/>
      <point x="217" y="970"/>
      <point x="139" y="887"/>
    </contour>
  </outline>
</glyph>
<glyph name="sheqel" format="2">
  <advance width="1722.3"/>
  <unicode hex="20AA"/>
  <outline>
    <contour>
      <point x="562" y="0" type="line"/>
      <point x="1022" y="0" type="line" smooth="yes"/>
      <point x="1346" y="0"/>
      <point x="1543" y="186"/>
      <point x="1541" y="483" type="curve"/>
      <point x="1541" y="1179" type="line"/>
      <point x="1369" y="1179" type="line"/>
      <point x="1369" y="480" type="line" smooth="yes"/>
      <point x="1369" y="276"/>
      <point x="1228" y="152"/>
      <point x="1029" y="153" type="curve" smooth="yes"/>
      <point x="735" y="153" type="line"/>
      <point x="735" y="829" type="line"/>
      <point x="562" y="829" type="line"/>
    </contour>
    <contour>
      <point x="152" y="0" type="line"/>
      <point x="325" y="0" type="line"/>
      <point x="325" y="1026" type="line"/>
      <point x="959" y="1026" type="line"/>
      <point x="959" y="577" type="line" smooth="yes"/>
      <point x="959" y="477"/>
      <point x="949" y="394"/>
      <point x="929" y="319" type="curve"/>
      <point x="938" y="311" type="line"/>
      <point x="1089" y="335" type="line"/>
      <point x="1119" y="412"/>
      <point x="1132" y="494"/>
      <point x="1132" y="586" type="curve" smooth="yes"/>
      <point x="1132" y="1179" type="line"/>
      <point x="152" y="1179" type="line"/>
    </contour>
  </outline>
</glyph>
<glyph name="Euro" format="2">
  <advance width="1151.03"/>
  <unicode hex="20AC"/>
  <outline>
    <contour>
      <point x="892" y="135"/>
      <point x="815" y="135" type="curve" smooth="yes"/>
      <point x="604" y="135"/>
      <point x="468" y="272"/>
      <point x="468" y="559" type="curve"/>
      <point x="468" y="896" type="line"/>
      <point x="468" y="1184"/>
      <point x="601" y="1320"/>
      <point x="814" y="1320" type="curve" smooth="yes"/>
      <point x="891" y="1320"/>
      <point x="967" y="1306"/>
      <point x="1033" y="1285" type="curve"/>
      <point x="1053" y="1445" type="line"/>
      <point x="971" y="1464"/>
      <point x="896" y="1476"/>
      <point x="812" y="1476" type="curve" smooth="yes"/>
      <point x="493" y="1476"/>
      <point x="273" y="1281"/>
      <point x="273" y="894" type="curve"/>
      <point x="273" y="559" type="line"/>
      <point x="273" y="174"/>
      <point x="495" y="-20"/>
      <point x="813" y="-20" type="curve" smooth="yes"/>
      <point x="896" y="-20"/>
      <point x="979" y="-9"/>
      <point x="1053" y="10" type="curve"/>
      <point x="1033" y="169" type="line"/>
      <point x="966" y="147"/>
    </contour>
    <contour>
      <point x="851" y="803" type="line"/>
      <point x="851" y="927" type="line"/>
      <point x="96" y="927" type="line"/>
      <point x="96" y="803" type="line"/>
    </contour>
    <contour>
      <point x="851" y="542" type="line"/>
      <point x="851" y="665" type="line"/>
      <point x="96" y="665" type="line"/>
      <point x="96" y="542" type="line"/>
    </contour>
  </outline>
</glyph>
<glyph name="fi" format="2">
  <advance width="1135.25"/>
  <unicode hex="FB01"/>
  <outline>
    <contour>
      <point x="202" y="0" type="line"/>
      <point x="389" y="0" type="line"/>
      <point x="389" y="1177" type="line"/>
      <point x="389" y="1321"/>
      <point x="454" y="1392"/>
      <point x="613" y="1392" type="curve" smooth="yes"/>
      <point x="708" y="1392"/>
      <point x="791" y="1366"/>
      <point x="851" y="1342" type="curve"/>
      <point x="882" y="1496" type="line"/>
      <point x="785" y="1531"/>
      <point x="695" y="1557"/>
      <point x="599" y="1557" type="curve" smooth="yes"/>
      <point x="353" y="1557"/>
      <point x="202" y="1422"/>
      <point x="202" y="1177" type="curve"/>
    </contour>
    <contour>
      <point x="609" y="941" type="line"/>
      <point x="609" y="1082" type="line"/>
      <point x="31" y="1082" type="line"/>
      <point x="31" y="941" type="line"/>
    </contour>
    <contour>
      <point x="974" y="0" type="line"/>
      <point x="974" y="1082" type="line"/>
      <point x="787" y="1082" type="line"/>
      <point x="787" y="0" type="line"/>
    </contour>
  </outline>
</glyph>
<glyph name="longst" format="2">
  <advance width="1263.46"/>
  <unicode hex="FB05"/>
  <outline>
    <contour>
      <point x="387" y="941" type="line"/>
      <point x="387" y="1082" type="line"/>
      <point x="61" y="1082" type="line"/>
      <point x="61" y="941" type="line"/>
    </contour>
    <contour>
      <point x="689" y="1557"/>
      <point x="571" y="1557" type="curve" smooth="yes"/>
      <point x="360" y="1557"/>
      <point x="231" y="1429"/>
      <point x="231" y="1197" type="curve" smooth="yes"/>
      <point x="231" y="0" type="line"/>
      <point x="418" y="0" type="line"/>
      <point x="418" y="1197" type="line" smooth="yes"/>
      <point x="418" y="1328"/>
      <point x="481" y="1407"/>
      <point x="600" y="1407" type="curve" smooth="yes"/>
      <point x="660" y="1407"/>
      <point x="747" y="1391"/>
      <point x="787" y="1370" type="curve"/>
      <point x="787" y="1248" type="line"/>
      <point x="974" y="1248" type="line"/>
      <point x="974" y="1457" type="line"/>
      <point x="850" y="1518"/>
    </contour>
    <component base="t" xOffset="581"/>
  </outline>
</glyph>
<glyph name="widedalethebrew" format="2">
  <advance width="1346.91"/>
  <unicode hex="FB22"/>
  <anchor x="954" y="0" name="bottom"/>
  <anchor x="514" y="603" name="center"/>
  <anchor x="648" y="1178" name="top"/>
  <anchor x="16" y="1178" name="topleft"/>
  <outline>
    <contour>
      <point x="60" y="1178" type="line"/>
      <point x="60" y="1029" type="line"/>
      <point x="860" y="1029" type="line"/>
      <point x="860" y="0" type="line"/>
      <point x="1045" y="0" type="line"/>
      <point x="1045" y="1017" type="line"/>
      <point x="1283" y="1039" type="line"/>
      <point x="1283" y="1178" type="line"/>
    </contour>
  </outline>
</glyph>
<glyph name="widekafhebrew" format="2">
  <advance width="1562.99"/>
  <unicode hex="FB24"/>
  <anchor x="685" y="0" name="bottom"/>
  <anchor x="662" y="603" name="center"/>
  <anchor x="717" y="1178" name="top"/>
  <anchor x="5" y="1178" name="topleft"/>
  <outline>
    <contour>
      <point x="685" y="-34" type="curve" smooth="yes"/>
      <point x="1129" y="-34"/>
      <point x="1381" y="130"/>
      <point x="1382" y="463" type="curve" smooth="yes"/>
      <point x="1382" y="1178" type="line"/>
      <point x="115" y="1178" type="line"/>
      <point x="115" y="1029" type="line"/>
      <point x="1197" y="1029" type="line"/>
      <point x="1197" y="464" type="line" smooth="yes"/>
      <point x="1196" y="239"/>
      <point x="1031" y="121"/>
      <point x="678" y="121" type="curve" smooth="yes"/>
      <point x="529" y="121"/>
      <point x="328" y="143"/>
      <point x="109" y="186" type="curve"/>
      <point x="81" y="37" type="line"/>
      <point x="302" y="-10"/>
      <point x="516" y="-34"/>
    </contour>
  </outline>
</glyph>
<glyph name="widelamedhebrew" format="2">
  <advance width="1417.02"/>
  <unicode hex="FB25"/>
  <anchor x="637" y="0" name="bottom"/>
  <anchor x="474" y="603" name="center"/>
  <anchor x="790" y="1178" name="top"/>
  <anchor x="-55" y="1337" name="topleft"/>
  <outline>
    <contour>
      <point x="1143" y="1029" type="line"/>
      <point x="1317" y="1178" type="line"/>
      <point x="268" y="1178" type="line"/>
      <point x="268" y="1501" type="line"/>
      <point x="83" y="1501" type="line"/>
      <point x="83" y="1029" type="line"/>
    </contour>
    <contour>
      <point x="1343" y="1061" type="line"/>
      <point x="1343" y="1178" type="line"/>
      <point x="1200" y="1178" type="line"/>
      <point x="528" y="0" type="line"/>
      <point x="727" y="0" type="line"/>
    </contour>
  </outline>
</glyph>
<glyph name="alternativeplushebrew" format="2">
  <advance width="1128.25"/>
  <unicode hex="FB29"/>
  <outline>
    <contour>
      <point x="473" y="1206" type="line"/>
      <point x="473" y="757" type="line"/>
      <point x="63" y="757" type="line"/>
      <point x="63" y="601" type="line"/>
      <point x="1061" y="601" type="line"/>
      <point x="1061" y="757" type="line"/>
      <point x="641" y="757" type="line"/>
      <point x="641" y="1206" type="line"/>
    </contour>
  </outline>
</glyph>
<glyph name="AE.smcp" format="2">
  <advance width="1593.95"/>
  <anchor x="896" y="0" name="bottom"/>
  <anchor x="896" y="1290" name="top"/>
  <anchor x="1594" y="1290" name="top0315"/>
  <outline>
    <contour>
      <point x="1522" y="0" type="line"/>
      <point x="1522" y="149" type="line"/>
      <point x="952" y="149" type="line"/>
      <point x="952" y="0" type="line"/>
    </contour>
    <contour>
      <point x="1417" y="534" type="line"/>
      <point x="1417" y="683" type="line"/>
      <point x="924" y="683" type="line"/>
      <point x="924" y="534" type="line"/>
    </contour>
    <contour>
      <point x="1480" y="1016" type="line"/>
      <point x="1480" y="1165" type="line"/>
      <point x="911" y="1165" type="line"/>
      <point x="911" y="1016" type="line"/>
    </contour>
    <contour>
      <point x="209" y="0" type="line"/>
      <point x="778" y="1054" type="line"/>
      <point x="789" y="1165" type="line"/>
      <point x="671" y="1165" type="line"/>
      <point x="9" y="0" type="line"/>
    </contour>
    <contour>
      <point x="931" y="302" type="line"/>
      <point x="931" y="452" type="line"/>
      <point x="327" y="452" type="line"/>
      <point x="327" y="302" type="line"/>
    </contour>
    <contour>
      <point x="978" y="0" type="line"/>
      <point x="937" y="1165" type="line"/>
      <point x="751" y="1165" type="line"/>
      <point x="792" y="0" type="line"/>
    </contour>
  </outline>
</glyph>
<glyph name="C.ss06" format="2">
  <advance width="1410.62"/>
  <outline>
    <contour>
      <point x="1310" y="462" type="curve"/>
      <point x="1116" y="462" type="line"/>
      <point x="1084" y="258"/>
      <point x="988" y="135"/>
      <point x="754" y="135" type="curve" smooth="yes"/>
      <point x="503" y="135"/>
      <point x="321" y="365"/>
      <point x="321" y="697" type="curve" smooth="yes"/>
      <point x="321" y="760" type="line" smooth="yes"/>
      <point x="321" y="1091"/>
      <point x="484" y="1320"/>
      <point x="745" y="1320" type="curve" smooth="yes"/>
      <point x="969" y="1320"/>
      <point x="1086" y="1191"/>
      <point x="1116" y="989" type="curve"/>
      <point x="1311" y="989" type="line"/>
      <point x="1280" y="1277"/>
      <point x="1075" y="1477"/>
      <point x="745" y="1477" type="curve" smooth="yes"/>
      <point x="381" y="1477"/>
      <point x="126" y="1189"/>
      <point x="126" y="758" type="curve"/>
      <point x="126" y="697" type="line"/>
      <point x="126" y="266"/>
      <point x="398" y="-21"/>
      <point x="754" y="-21" type="curve" smooth="yes"/>
      <point x="1094" y="-21"/>
      <point x="1279" y="186"/>
    </contour>
  </outline>
</glyph>
<glyph name="Euro.smcp" format="2">
  <advance width="996.62"/>
  <outline>
    <contour>
      <point x="776" y="134"/>
      <point x="698" y="134" type="curve" smooth="yes"/>
      <point x="499" y="134"/>
      <point x="404" y="254"/>
      <point x="404" y="487" type="curve" smooth="yes"/>
      <point x="404" y="675" type="line" smooth="yes"/>
      <point x="404" y="909"/>
      <point x="497" y="1031"/>
      <point x="696" y="1031" type="curve" smooth="yes"/>
      <point x="775" y="1031"/>
      <point x="838" y="1024"/>
      <point x="906" y="1003" type="curve"/>
      <point x="927" y="1150" type="line"/>
      <point x="846" y="1169"/>
      <point x="780" y="1181"/>
      <point x="696" y="1181" type="curve" smooth="yes"/>
      <point x="394" y="1181"/>
      <point x="218" y="1002"/>
      <point x="218" y="673" type="curve" smooth="yes"/>
      <point x="218" y="487" type="line" smooth="yes"/>
      <point x="218" y="158"/>
      <point x="396" y="-16"/>
      <point x="698" y="-16" type="curve" smooth="yes"/>
      <point x="781" y="-16"/>
      <point x="854" y="-5"/>
      <point x="927" y="15" type="curve"/>
      <point x="900" y="163" type="line"/>
      <point x="831" y="144"/>
    </contour>
    <contour>
      <point x="817" y="636" type="line"/>
      <point x="817" y="757" type="line"/>
      <point x="67" y="757" type="line"/>
      <point x="67" y="636" type="line"/>
    </contour>
    <contour>
      <point x="817" y="406" type="line"/>
      <point x="817" y="527" type="line"/>
      <point x="67" y="527" type="line"/>
      <point x="67" y="406" type="line"/>
    </contour>
  </outline>
</glyph>
<glyph name="F.smcp" format="2">
  <advance width="971.33"/>
  <anchor x="489" y="10" name="bottom"/>
  <anchor x="971" y="-407" name="bottom_dd"/>
  <anchor x="286" y="255" name="cross"/>
  <anchor x="541" y="1320" name="top"/>
  <anchor x="971" y="1320" name="top0315"/>
  <anchor x="971" y="1600" name="top_dd"/>
  <outline>
    <contour>
      <point x="325" y="0" type="line"/>
      <point x="325" y="1165" type="line"/>
      <point x="138" y="1165" type="line"/>
      <point x="138" y="0" type="line"/>
    </contour>
    <contour>
      <point x="843" y="500" type="line"/>
      <point x="843" y="652" type="line"/>
      <point x="281" y="652" type="line"/>
      <point x="281" y="500" type="line"/>
    </contour>
    <contour>
      <point x="923" y="1014" type="line"/>
      <point x="923" y="1165" type="line"/>
      <point x="281" y="1165" type="line"/>
      <point x="281" y="1014" type="line"/>
    </contour>
  </outline>
</glyph>
<glyph name="H.smcp" format="2">
  <advance width="1251.65"/>
  <anchor x="615" y="10" name="bottom"/>
  <anchor x="1252" y="-407" name="bottom_dd"/>
  <anchor x="1113" y="0" name="right"/>
  <anchor x="45" y="1163" name="tonos"/>
  <anchor x="615" y="1320" name="top"/>
  <anchor x="1252" y="1320" name="top0315"/>
  <anchor x="1252" y="1600" name="top_dd"/>
  <outline>
    <contour>
      <point x="959" y="499" type="line"/>
      <point x="959" y="650" type="line"/>
      <point x="287" y="650" type="line"/>
      <point x="287" y="499" type="line"/>
    </contour>
    <contour>
      <point x="325" y="0" type="line"/>
      <point x="325" y="1165" type="line"/>
      <point x="138" y="1165" type="line"/>
      <point x="138" y="0" type="line"/>
    </contour>
    <contour>
      <point x="1113" y="0" type="line"/>
      <point x="1113" y="1165" type="line"/>
      <point x="927" y="1165" type="line"/>
      <point x="927" y="0" type="line"/>
    </contour>
  </outline>
</glyph>
<glyph name="I.smcp" format="2">
  <advance width="489.12"/>
  <anchor x="245" y="4" name="bottom"/>
  <anchor x="489" y="-407" name="bottom_dd"/>
  <anchor x="304" y="0" name="ogonek"/>
  <anchor x="337.99" y="0" name="right"/>
  <anchor x="50" y="1166" name="tonos"/>
  <anchor x="245" y="1320" name="top"/>
  <anchor x="489" y="1320" name="top0315"/>
  <anchor x="489" y="1600" name="top_dd"/>
  <outline>
    <contour>
      <point x="338" y="0" type="line"/>
      <point x="338" y="1165" type="line"/>
      <point x="151" y="1165" type="line"/>
      <point x="151" y="0" type="line"/>
    </contour>
  </outline>
</glyph>
<glyph name="K.alt2" format="2">
  <advance width="1341.86"/>
  <outline>
    <contour>
      <point x="372" y="0" type="line"/>
      <point x="372" y="1456" type="line"/>
      <point x="178" y="1456" type="line"/>
      <point x="178" y="0" type="line"/>
    </contour>
    <contour>
      <point x="550" y="719" type="line"/>
      <point x="1236" y="1456" type="line"/>
      <point x="994" y="1456" type="line"/>
      <point x="383" y="809" type="line"/>
      <point x="263" y="809" type="line"/>
      <point x="273" y="719" type="line"/>
    </contour>
    <contour>
      <point x="322" y="744" type="line"/>
      <point x="1037" y="0" type="line"/>
      <point x="1276" y="0" type="line"/>
      <point x="485" y="844" type="line"/>
    </contour>
  </outline>
</glyph>
<glyph name="K.smcp" format="2">
  <advance width="1108.72"/>
  <anchor x="531" y="6" name="bottom"/>
  <anchor x="1109" y="-407" name="bottom_dd"/>
  <anchor x="230" y="982" name="cross"/>
  <anchor x="1052" y="0" name="right"/>
  <anchor x="518" y="1320" name="top"/>
  <anchor x="1109" y="1320" name="top0315"/>
  <anchor x="1109" y="1600" name="top_dd"/>
  <outline>
    <contour>
      <point x="325" y="0" type="line"/>
      <point x="325" y="1165" type="line"/>
      <point x="138" y="1165" type="line"/>
      <point x="138" y="0" type="line"/>
    </contour>
    <contour>
      <point x="564" y="608" type="line"/>
      <point x="1078" y="1165" type="line"/>
      <point x="849" y="1165" type="line"/>
      <point x="454" y="753" type="line"/>
      <point x="240" y="518" type="line"/>
      <point x="276" y="331" type="line"/>
    </contour>
    <contour>
      <point x="443" y="556" type="line"/>
      <point x="885" y="0" type="line"/>
      <point x="1112" y="0" type="line"/>
      <point x="567" y="688" type="line"/>
    </contour>
  </outline>
</glyph>
<glyph name="M.smcp" format="2">
  <advance width="1538.39"/>
  <anchor x="765" y="10" name="bottom"/>
  <anchor x="1538" y="-407" name="bottom_dd"/>
  <anchor x="1393" y="0" name="right"/>
  <anchor x="765" y="1320" name="top"/>
  <anchor x="1538" y="1320" name="top0315"/>
  <anchor x="1538" y="1600" name="top_dd"/>
  <outline>
    <contour>
      <point x="380" y="1165" type="line"/>
      <point x="204" y="1165" type="line"/>
      <point x="700" y="0" type="line"/>
      <point x="837" y="0" type="line"/>
      <point x="1333" y="1165" type="line"/>
      <point x="1158" y="1165" type="line"/>
      <point x="769" y="252" type="line"/>
    </contour>
    <contour>
      <point x="297" y="1165" type="line"/>
      <point x="138" y="1165" type="line"/>
      <point x="138" y="0" type="line"/>
      <point x="324" y="0" type="line"/>
      <point x="324" y="403" type="line"/>
    </contour>
    <contour>
      <point x="1400" y="1165" type="line"/>
      <point x="1242" y="1165" type="line"/>
      <point x="1214" y="403" type="line"/>
      <point x="1214" y="0" type="line"/>
      <point x="1400" y="0" type="line"/>
    </contour>
  </outline>
</glyph>
<glyph name="O.ss06" format="2">
  <advance width="1505.36"/>
  <outline>
    <contour>
      <point x="1376" y="706" type="curve"/>
      <point x="1376" y="750" type="line"/>
      <point x="1376" y="1176"/>
      <point x="1108" y="1477"/>
      <point x="751" y="1477" type="curve" smooth="yes"/>
      <point x="404" y="1477"/>
      <point x="126" y="1176"/>
      <point x="126" y="750" type="curve"/>
      <point x="126" y="706" type="line"/>
      <point x="126" y="279"/>
      <point x="406" y="-21"/>
      <point x="753" y="-21" type="curve" smooth="yes"/>
      <point x="1110" y="-21"/>
      <point x="1376" y="279"/>
    </contour>
    <contour>
      <point x="1184" y="752" type="curve"/>
      <point x="1184" y="706" type="line"/>
      <point x="1184" y="368"/>
      <point x="1005" y="141"/>
      <point x="753" y="141" type="curve" smooth="yes"/>
      <point x="514" y="141"/>
      <point x="319" y="368"/>
      <point x="319" y="706" type="curve" smooth="yes"/>
      <point x="319" y="752" type="line" smooth="yes"/>
      <point x="319" y="1087"/>
      <point x="512" y="1314"/>
      <point x="751" y="1314" type="curve" smooth="yes"/>
      <point x="1001" y="1314"/>
      <point x="1184" y="1087"/>
    </contour>
  </outline>
</glyph>
<glyph name="Q.smcp" format="2">
  <advance width="1212.4"/>
  <anchor x="599" y="-10" name="bottom"/>
  <anchor x="1212" y="-407" name="bottom_dd"/>
  <anchor x="599" y="1320" name="top"/>
  <anchor x="1212" y="1320" name="top0315"/>
  <anchor x="1212" y="1600" name="top_dd"/>
  <outline>
    <contour>
      <point x="1113" y="-93" type="line"/>
      <point x="788" y="148" type="line"/>
      <point x="671" y="37" type="line"/>
      <point x="987" y="-203" type="line"/>
    </contour>
    <contour>
      <point x="1110" y="548" type="curve"/>
      <point x="1110" y="616" type="line"/>
      <point x="1110" y="967"/>
      <point x="907" y="1181"/>
      <point x="599" y="1181" type="curve" smooth="yes"/>
      <point x="298" y="1181"/>
      <point x="89" y="967"/>
      <point x="89" y="616" type="curve"/>
      <point x="89" y="548" type="line"/>
      <point x="89" y="197"/>
      <point x="300" y="-16"/>
      <point x="601" y="-16" type="curve" smooth="yes"/>
      <point x="909" y="-16"/>
      <point x="1110" y="197"/>
    </contour>
    <contour>
      <point x="925" y="618" type="curve"/>
      <point x="925" y="548" type="line"/>
      <point x="925" y="284"/>
      <point x="807" y="137"/>
      <point x="601" y="137" type="curve" smooth="yes"/>
      <point x="403" y="137"/>
      <point x="275" y="284"/>
      <point x="275" y="548" type="curve" smooth="yes"/>
      <point x="275" y="618" type="line" smooth="yes"/>
      <point x="275" y="881"/>
      <point x="401" y="1027"/>
      <point x="599" y="1027" type="curve" smooth="yes"/>
      <point x="805" y="1027"/>
      <point x="925" y="881"/>
    </contour>
  </outline>
</glyph>
<glyph name="S.smcp" format="2">
  <advance width="1056.47"/>
  <anchor x="552" y="-1" name="bottom"/>
  <anchor x="1056" y="-407" name="bottom_dd"/>
  <anchor x="543" y="1320" name="top"/>
  <anchor x="1056" y="1320" name="top0315"/>
  <anchor x="1056" y="1600" name="top_dd"/>
  <outline>
    <contour>
      <point x="802" y="397"/>
      <point x="802" y="298" type="curve"/>
      <point x="802" y="200"/>
      <point x="714" y="133"/>
      <point x="548" y="133" type="curve" smooth="yes"/>
      <point x="388" y="133"/>
      <point x="255" y="194"/>
      <point x="255" y="349" type="curve"/>
      <point x="67" y="349" type="line"/>
      <point x="67" y="103"/>
      <point x="312" y="-16"/>
      <point x="548" y="-16" type="curve" smooth="yes"/>
      <point x="814" y="-16"/>
      <point x="990" y="105"/>
      <point x="990" y="300" type="curve"/>
      <point x="990" y="491"/>
      <point x="846" y="598"/>
      <point x="587" y="664" type="curve" smooth="yes"/>
      <point x="374" y="717"/>
      <point x="294" y="771"/>
      <point x="294" y="862" type="curve"/>
      <point x="294" y="958"/>
      <point x="373" y="1031"/>
      <point x="540" y="1031" type="curve" smooth="yes"/>
      <point x="716" y="1031"/>
      <point x="800" y="945"/>
      <point x="800" y="826" type="curve"/>
      <point x="987" y="826" type="line"/>
      <point x="987" y="1020"/>
      <point x="822" y="1181"/>
      <point x="542" y="1181" type="curve" smooth="yes"/>
      <point x="281" y="1181"/>
      <point x="107" y="1048"/>
      <point x="107" y="861" type="curve"/>
      <point x="107" y="668"/>
      <point x="273" y="568"/>
      <point x="531" y="505" type="curve" smooth="yes"/>
      <point x="747" y="453"/>
    </contour>
  </outline>
</glyph>
<glyph name="U.smcp" format="2">
  <advance width="1148.25"/>
  <anchor x="574" y="0" name="bottom"/>
  <anchor x="1148" y="-407" name="bottom_dd"/>
  <anchor x="816" y="37" name="ogonek"/>
  <anchor x="717" y="0" name="right"/>
  <anchor x="575" y="1320" name="top"/>
  <anchor x="1148" y="1320" name="top0315"/>
  <anchor x="1148" y="1600" name="top_dd"/>
  <outline>
    <contour>
      <point x="1035" y="1165" type="line"/>
      <point x="848" y="1165" type="line"/>
      <point x="848" y="385" type="line" smooth="yes"/>
      <point x="848" y="212"/>
      <point x="740" y="134"/>
      <point x="575" y="134" type="curve" smooth="yes"/>
      <point x="411" y="134"/>
      <point x="301" y="212"/>
      <point x="301" y="385" type="curve" smooth="yes"/>
      <point x="301" y="1165" type="line"/>
      <point x="116" y="1165" type="line"/>
      <point x="116" y="385" type="line"/>
      <point x="116" y="119"/>
      <point x="313" y="-16"/>
      <point x="575" y="-16" type="curve" smooth="yes"/>
      <point x="826" y="-16"/>
      <point x="1035" y="119"/>
      <point x="1035" y="385" type="curve"/>
    </contour>
  </outline>
</glyph>
<glyph name="V.smcp" format="2">
  <advance width="1128.8"/>
  <anchor x="562" y="10" name="bottom"/>
  <anchor x="1129" y="-407" name="bottom_dd"/>
  <anchor x="562" y="1320" name="top"/>
  <anchor x="1129" y="1320" name="top0315"/>
  <anchor x="1129" y="1600" name="top_dd"/>
  <outline>
    <contour>
      <point x="909" y="1165" type="line"/>
      <point x="590" y="289" type="line"/>
      <point x="509" y="0" type="line"/>
      <point x="652" y="0" type="line"/>
      <point x="1109" y="1165" type="line"/>
    </contour>
    <contour>
      <point x="538" y="291" type="line"/>
      <point x="221" y="1165" type="line"/>
      <point x="20" y="1165" type="line"/>
      <point x="477" y="0" type="line"/>
      <point x="620" y="0" type="line"/>
    </contour>
  </outline>
</glyph>
<glyph name="Z.smcp" format="2">
  <advance width="1059.37"/>
  <anchor x="533" y="10" name="bottom"/>
  <anchor x="1059" y="-407" name="bottom_dd"/>
  <anchor x="533" y="1320" name="top"/>
  <anchor x="1059" y="1320" name="top0315"/>
  <anchor x="1059" y="1600" name="top_dd"/>
  <outline>
    <contour>
      <point x="993" y="0" type="line"/>
      <point x="993" y="150" type="line"/>
      <point x="135" y="150" type="line"/>
      <point x="135" y="0" type="line"/>
    </contour>
    <contour>
      <point x="192" y="0" type="line"/>
      <point x="969" y="1046" type="line"/>
      <point x="969" y="1165" type="line"/>
      <point x="850" y="1165" type="line"/>
      <point x="72" y="123" type="line"/>
      <point x="72" y="0" type="line"/>
    </contour>
    <contour>
      <point x="894" y="1014" type="line"/>
      <point x="894" y="1165" type="line"/>
      <point x="80" y="1165" type="line"/>
      <point x="80" y="1014" type="line"/>
    </contour>
  </outline>
</glyph>
<glyph name="b.ss06" format="2">
  <advance width="1149.94"/>
  <outline>
    <contour>
      <point x="327" y="1536" type="line"/>
      <point x="140" y="1536" type="line"/>
      <point x="140" y="0" type="line"/>
      <point x="301" y="0" type="line"/>
      <point x="327" y="210" type="line"/>
    </contour>
    <contour>
      <point x="1077" y="530" type="curve" smooth="yes"/>
      <point x="1077" y="551" type="line"/>
      <point x="1077" y="881"/>
      <point x="906" y="1102"/>
      <point x="635" y="1102" type="curve" smooth="yes"/>
      <point x="361" y="1102"/>
      <point x="229" y="905"/>
      <point x="197" y="588" type="curve"/>
      <point x="197" y="491" type="line"/>
      <point x="228" y="177"/>
      <point x="361" y="-20"/>
      <point x="637" y="-20" type="curve" smooth="yes"/>
      <point x="905" y="-20"/>
      <point x="1077" y="214"/>
    </contour>
    <contour>
      <point x="890" y="551" type="curve" smooth="yes"/>
      <point x="890" y="530" type="line"/>
      <point x="890" y="314"/>
      <point x="789" y="136"/>
      <point x="590" y="136" type="curve" smooth="yes"/>
      <point x="407" y="136"/>
      <point x="320" y="276"/>
      <point x="288" y="417" type="curve"/>
      <point x="288" y="660" type="line"/>
      <point x="318" y="807"/>
      <point x="403" y="947"/>
      <point x="588" y="947" type="curve" smooth="yes"/>
      <point x="789" y="947"/>
      <point x="890" y="774"/>
    </contour>
  </outline>
</glyph>
<glyph name="crossbar" format="2">
  <advance width="920.2"/>
  <anchor x="459" y="724" name="_cross"/>
  <outline>
    <contour>
      <point x="781" y="652" type="line"/>
      <point x="781" y="802" type="line"/>
      <point x="143" y="802" type="line"/>
      <point x="143" y="652" type="line"/>
    </contour>
  </outline>
</glyph>
<glyph name="dollar.smcp" format="2">
  <advance width="1056.47"/>
  <outline>
    <contour>
      <point x="626" y="1091" type="line"/>
      <point x="626" y="1395" type="line"/>
      <point x="476" y="1395" type="line"/>
      <point x="476" y="1091" type="line"/>
    </contour>
    <contour>
      <point x="626" y="-237" type="line"/>
      <point x="626" y="67" type="line"/>
      <point x="476" y="67" type="line"/>
      <point x="476" y="-237" type="line"/>
    </contour>
    <component base="S.smcp"/>
  </outline>
</glyph>
<glyph name="eight.smcp" format="2">
  <advance width="1040.03"/>
  <outline>
    <contour>
      <point x="942" y="100"/>
      <point x="942" y="317" type="curve" smooth="yes"/>
      <point x="942" y="508"/>
      <point x="762" y="638"/>
      <point x="518" y="638" type="curve" smooth="yes"/>
      <point x="273" y="638"/>
      <point x="97" y="508"/>
      <point x="97" y="317" type="curve" smooth="yes"/>
      <point x="97" y="100"/>
      <point x="281" y="-16"/>
      <point x="520" y="-16" type="curve" smooth="yes"/>
      <point x="756" y="-16"/>
    </contour>
    <contour>
      <point x="755" y="444"/>
      <point x="755" y="327" type="curve" smooth="yes"/>
      <point x="755" y="206"/>
      <point x="661" y="134"/>
      <point x="520" y="134" type="curve" smooth="yes"/>
      <point x="375" y="134"/>
      <point x="284" y="206"/>
      <point x="284" y="327" type="curve" smooth="yes"/>
      <point x="284" y="444"/>
      <point x="375" y="523"/>
      <point x="518" y="523" type="curve" smooth="yes"/>
      <point x="659" y="523"/>
    </contour>
    <contour>
      <point x="912" y="683"/>
      <point x="912" y="859" type="curve" smooth="yes"/>
      <point x="912" y="1065"/>
      <point x="744" y="1181"/>
      <point x="518" y="1181" type="curve" smooth="yes"/>
      <point x="291" y="1181"/>
      <point x="127" y="1065"/>
      <point x="127" y="859" type="curve" smooth="yes"/>
      <point x="127" y="683"/>
      <point x="291" y="558"/>
      <point x="520" y="558" type="curve" smooth="yes"/>
      <point x="746" y="558"/>
    </contour>
    <contour>
      <point x="726" y="956"/>
      <point x="726" y="852" type="curve" smooth="yes"/>
      <point x="726" y="743"/>
      <point x="643" y="673"/>
      <point x="520" y="673" type="curve" smooth="yes"/>
      <point x="395" y="673"/>
      <point x="315" y="743"/>
      <point x="315" y="852" type="curve" smooth="yes"/>
      <point x="315" y="962"/>
      <point x="395" y="1030"/>
      <point x="518" y="1030" type="curve" smooth="yes"/>
      <point x="641" y="1030"/>
    </contour>
  </outline>
</glyph>
<glyph name="eight.sup" format="2">
  <advance width="751.66"/>
  <outline>
    <contour>
      <point x="672" y="66"/>
      <point x="672" y="216" type="curve" smooth="yes"/>
      <point x="672" y="351"/>
      <point x="546" y="435"/>
      <point x="375" y="435" type="curve" smooth="yes"/>
      <point x="205" y="435"/>
      <point x="79" y="351"/>
      <point x="79" y="216" type="curve" smooth="yes"/>
      <point x="79" y="66"/>
      <point x="208" y="-11"/>
      <point x="376" y="-11" type="curve" smooth="yes"/>
      <point x="544" y="-11"/>
    </contour>
    <contour>
      <point x="514" y="297"/>
      <point x="514" y="228" type="curve" smooth="yes"/>
      <point x="514" y="158"/>
      <point x="458" y="116"/>
      <point x="376" y="116" type="curve" smooth="yes"/>
      <point x="292" y="116"/>
      <point x="238" y="158"/>
      <point x="238" y="228" type="curve" smooth="yes"/>
      <point x="238" y="297"/>
      <point x="292" y="339"/>
      <point x="375" y="339" type="curve" smooth="yes"/>
      <point x="457" y="339"/>
    </contour>
    <contour>
      <point x="652" y="456"/>
      <point x="652" y="580" type="curve" smooth="yes"/>
      <point x="652" y="722"/>
      <point x="535" y="800"/>
      <point x="375" y="800" type="curve" smooth="yes"/>
      <point x="214" y="800"/>
      <point x="99" y="722"/>
      <point x="99" y="580" type="curve" smooth="yes"/>
      <point x="99" y="456"/>
      <point x="214" y="374"/>
      <point x="376" y="374" type="curve" smooth="yes"/>
      <point x="537" y="374"/>
    </contour>
    <contour>
      <point x="494" y="632"/>
      <point x="494" y="571" type="curve" smooth="yes"/>
      <point x="494" y="509"/>
      <point x="449" y="468"/>
      <point x="376" y="468" type="curve" smooth="yes"/>
      <point x="302" y="468"/>
      <point x="257" y="509"/>
      <point x="257" y="571" type="curve" smooth="yes"/>
      <point x="257" y="634"/>
      <point x="302" y="673"/>
      <point x="375" y="673" type="curve" smooth="yes"/>
      <point x="448" y="673"/>
    </contour>
  </outline>
</glyph>
<glyph name="f_f_i" format="2">
  <advance width="1749.47"/>
  <outline>
    <contour>
      <point x="231" y="0" type="line"/>
      <point x="418" y="0" type="line"/>
      <point x="418" y="1197" type="line"/>
      <point x="418" y="1328"/>
      <point x="487" y="1400"/>
      <point x="605" y="1400" type="curve" smooth="yes"/>
      <point x="640" y="1400"/>
      <point x="677" y="1397"/>
      <point x="705" y="1392" type="curve"/>
      <point x="715" y="1541" type="line"/>
      <point x="674" y="1551"/>
      <point x="630" y="1557"/>
      <point x="588" y="1557" type="curve" smooth="yes"/>
      <point x="366" y="1557"/>
      <point x="231" y="1429"/>
      <point x="231" y="1197" type="curve"/>
    </contour>
    <contour>
      <point x="657" y="941" type="line"/>
      <point x="657" y="1082" type="line"/>
      <point x="61" y="1082" type="line"/>
      <point x="61" y="941" type="line"/>
    </contour>
    <contour>
      <point x="816" y="0" type="line"/>
      <point x="1003" y="0" type="line"/>
      <point x="1003" y="1177" type="line"/>
      <point x="1003" y="1321"/>
      <point x="1068" y="1392"/>
      <point x="1227" y="1392" type="curve" smooth="yes"/>
      <point x="1322" y="1392"/>
      <point x="1405" y="1366"/>
      <point x="1465" y="1342" type="curve"/>
      <point x="1497" y="1496" type="line"/>
      <point x="1399" y="1531"/>
      <point x="1310" y="1557"/>
      <point x="1213" y="1557" type="curve" smooth="yes"/>
      <point x="968" y="1557"/>
      <point x="816" y="1422"/>
      <point x="816" y="1177" type="curve"/>
    </contour>
    <contour>
      <point x="1224" y="941" type="line"/>
      <point x="1224" y="1082" type="line"/>
      <point x="646" y="1082" type="line"/>
      <point x="646" y="941" type="line"/>
    </contour>
    <contour>
      <point x="1588" y="0" type="line"/>
      <point x="1588" y="1082" type="line"/>
      <point x="1401" y="1082" type="line"/>
      <point x="1401" y="0" type="line"/>
    </contour>
  </outline>
</glyph>
<glyph name="f_f_l" format="2">
  <advance width="1749.47"/>
  <outline>
    <contour>
      <point x="231" y="0" type="line"/>
      <point x="418" y="0" type="line"/>
      <point x="418" y="1197" type="line"/>
      <point x="418" y="1328"/>
      <point x="487" y="1400"/>
      <point x="605" y="1400" type="curve" smooth="yes"/>
      <point x="640" y="1400"/>
      <point x="677" y="1397"/>
      <point x="705" y="1392" type="curve"/>
      <point x="715" y="1541" type="line"/>
      <point x="674" y="1551"/>
      <point x="630" y="1557"/>
      <point x="588" y="1557" type="curve" smooth="yes"/>
      <point x="366" y="1557"/>
      <point x="231" y="1429"/>
      <point x="231" y="1197" type="curve"/>
    </contour>
    <contour>
      <point x="658" y="941" type="line"/>
      <point x="658" y="1082" type="line"/>
      <point x="61" y="1082" type="line"/>
      <point x="61" y="941" type="line"/>
    </contour>
    <contour>
      <point x="816" y="0" type="line"/>
      <point x="1003" y="0" type="line"/>
      <point x="1003" y="1197" type="line"/>
      <point x="1003" y="1328"/>
      <point x="1072" y="1400"/>
      <point x="1202" y="1400" type="curve" smooth="yes"/>
      <point x="1273" y="1400"/>
      <point x="1374" y="1387"/>
      <point x="1502" y="1363" type="curve"/>
      <point x="1588" y="1496" type="line"/>
      <point x="1444" y="1525"/>
      <point x="1275" y="1557"/>
      <point x="1188" y="1557" type="curve" smooth="yes"/>
      <point x="952" y="1557"/>
      <point x="816" y="1429"/>
      <point x="816" y="1197" type="curve"/>
    </contour>
    <contour>
      <point x="1401" y="1496" type="line"/>
      <point x="1401" y="0" type="line"/>
      <point x="1588" y="0" type="line"/>
      <point x="1588" y="1496" type="line"/>
    </contour>
    <contour>
      <point x="1233" y="941" type="line"/>
      <point x="1233" y="1082" type="line"/>
      <point x="646" y="1082" type="line"/>
      <point x="646" y="941" type="line"/>
    </contour>
  </outline>
</glyph>
<glyph name="f_l" format="2">
  <advance width="1164.37"/>
  <outline>
    <contour>
      <point x="231" y="0" type="line"/>
      <point x="418" y="0" type="line"/>
      <point x="418" y="1197" type="line"/>
      <point x="418" y="1328"/>
      <point x="487" y="1400"/>
      <point x="617" y="1400" type="curve" smooth="yes"/>
      <point x="688" y="1400"/>
      <point x="789" y="1387"/>
      <point x="917" y="1363" type="curve"/>
      <point x="1003" y="1496" type="line"/>
      <point x="859" y="1525"/>
      <point x="690" y="1557"/>
      <point x="603" y="1557" type="curve" smooth="yes"/>
      <point x="366" y="1557"/>
      <point x="231" y="1429"/>
      <point x="231" y="1197" type="curve"/>
    </contour>
    <contour>
      <point x="816" y="1496" type="line"/>
      <point x="816" y="0" type="line"/>
      <point x="1003" y="0" type="line"/>
      <point x="1003" y="1496" type="line"/>
    </contour>
    <contour>
      <point x="648" y="941" type="line"/>
      <point x="648" y="1082" type="line"/>
      <point x="61" y="1082" type="line"/>
      <point x="61" y="941" type="line"/>
    </contour>
  </outline>
</glyph>
<glyph name="five.sup" format="2">
  <advance width="751.66"/>
  <outline>
    <contour>
      <point x="112" y="388" type="line"/>
      <point x="239" y="357" type="line"/>
      <point x="268" y="378"/>
      <point x="298" y="400"/>
      <point x="371" y="400" type="curve"/>
      <point x="468" y="400"/>
      <point x="521" y="343"/>
      <point x="521" y="260" type="curve" smooth="yes"/>
      <point x="521" y="178"/>
      <point x="482" y="116"/>
      <point x="386" y="116" type="curve" smooth="yes"/>
      <point x="308" y="116"/>
      <point x="255" y="147"/>
      <point x="247" y="216" type="curve"/>
      <point x="91" y="216" type="line"/>
      <point x="99" y="71"/>
      <point x="237" y="-11"/>
      <point x="386" y="-11" type="curve" smooth="yes"/>
      <point x="587" y="-11"/>
      <point x="680" y="115"/>
      <point x="680" y="258" type="curve" smooth="yes"/>
      <point x="680" y="420"/>
      <point x="579" y="516"/>
      <point x="409" y="516" type="curve" smooth="yes"/>
      <point x="348" y="516"/>
      <point x="295" y="498"/>
      <point x="270" y="487" type="curve"/>
      <point x="293" y="659" type="line"/>
      <point x="641" y="659" type="line"/>
      <point x="641" y="789" type="line"/>
      <point x="162" y="789" type="line"/>
    </contour>
  </outline>
</glyph>
<glyph name="four.smcp" format="2">
  <advance width="1040.03"/>
  <outline>
    <contour>
      <point x="997" y="263" type="line"/>
      <point x="997" y="413" type="line"/>
      <point x="248" y="413" type="line"/>
      <point x="609" y="875" type="line"/>
      <point x="771" y="1165" type="line"/>
      <point x="626" y="1165" type="line"/>
      <point x="48" y="377" type="line"/>
      <point x="51" y="263" type="line"/>
    </contour>
    <contour>
      <point x="822" y="0" type="line"/>
      <point x="822" y="1165" type="line"/>
      <point x="635" y="1165" type="line"/>
      <point x="635" y="0" type="line"/>
    </contour>
  </outline>
</glyph>
<glyph name="four.sup" format="2">
  <advance width="751.66"/>
  <outline>
    <contour>
      <point x="700" y="170" type="line"/>
      <point x="700" y="299" type="line"/>
      <point x="213" y="299" type="line"/>
      <point x="419" y="561" type="line"/>
      <point x="556" y="789" type="line"/>
      <point x="431" y="789" type="line"/>
      <point x="54" y="271" type="line"/>
      <point x="61" y="170" type="line"/>
    </contour>
    <contour>
      <point x="593" y="0" type="line"/>
      <point x="593" y="789" type="line"/>
      <point x="434" y="789" type="line"/>
      <point x="434" y="0" type="line"/>
    </contour>
  </outline>
</glyph>
<glyph name="g.alt" format="2">
  <advance width="1082.37"/>
  <outline>
    <contour>
      <point x="92" y="744" type="curve"/>
      <point x="92" y="722" type="line"/>
      <point x="92" y="527"/>
      <point x="268" y="364"/>
      <point x="523" y="364" type="curve" smooth="yes"/>
      <point x="777" y="364"/>
      <point x="950" y="527"/>
      <point x="950" y="722" type="curve"/>
      <point x="950" y="744" type="line"/>
      <point x="950" y="952"/>
      <point x="777" y="1102"/>
      <point x="521" y="1102" type="curve" smooth="yes"/>
      <point x="268" y="1102"/>
      <point x="92" y="952"/>
    </contour>
    <contour>
      <point x="279" y="722" type="curve"/>
      <point x="279" y="744" type="line"/>
      <point x="279" y="856"/>
      <point x="377" y="952"/>
      <point x="521" y="952" type="curve" smooth="yes"/>
      <point x="666" y="952"/>
      <point x="764" y="856"/>
      <point x="764" y="744" type="curve"/>
      <point x="764" y="722" type="line"/>
      <point x="764" y="618"/>
      <point x="668" y="515"/>
      <point x="523" y="515" type="curve" smooth="yes"/>
      <point x="376" y="515"/>
      <point x="279" y="618"/>
    </contour>
    <contour>
      <point x="411" y="413" type="curve"/>
      <point x="316" y="463" type="line"/>
      <point x="252" y="423"/>
      <point x="152" y="358"/>
      <point x="152" y="224" type="curve" smooth="yes"/>
      <point x="152" y="100"/>
      <point x="272" y="46"/>
      <point x="411" y="46" type="curve"/>
      <point x="619" y="46" type="line"/>
      <point x="791" y="46"/>
      <point x="844" y="-7"/>
      <point x="844" y="-98" type="curve" smooth="yes"/>
      <point x="844" y="-182"/>
      <point x="719" y="-288"/>
      <point x="494" y="-288" type="curve" smooth="yes"/>
      <point x="304" y="-288"/>
      <point x="217" y="-214"/>
      <point x="217" y="-125" type="curve" smooth="yes"/>
      <point x="217" y="-27"/>
      <point x="291" y="50"/>
      <point x="374" y="65" type="curve"/>
      <point x="319" y="142" type="line"/>
      <point x="188" y="114"/>
      <point x="30" y="16"/>
      <point x="30" y="-161" type="curve" smooth="yes"/>
      <point x="30" y="-309"/>
      <point x="193" y="-438"/>
      <point x="494" y="-438" type="curve" smooth="yes"/>
      <point x="836" y="-438"/>
      <point x="1031" y="-251"/>
      <point x="1031" y="-98" type="curve" smooth="yes"/>
      <point x="1031" y="104"/>
      <point x="878" y="196"/>
      <point x="619" y="196" type="curve" smooth="yes"/>
      <point x="447" y="196" type="line" smooth="yes"/>
      <point x="376" y="196"/>
      <point x="320" y="216"/>
      <point x="320" y="279" type="curve" smooth="yes"/>
      <point x="320" y="354"/>
      <point x="375" y="391"/>
    </contour>
    <contour>
      <point x="1042" y="937" type="line"/>
      <point x="1040" y="1082" type="line"/>
      <point x="649" y="1082" type="line"/>
      <point x="660" y="937" type="line"/>
    </contour>
  </outline>
</glyph>
<glyph name="g.ss06" format="2">
  <advance width="1164.77"/>
  <outline>
    <contour>
      <point x="1025" y="1082" type="line"/>
      <point x="868" y="1082" type="line"/>
      <point x="838" y="844" type="line"/>
      <point x="838" y="69" type="line" smooth="yes"/>
      <point x="838" y="-156"/>
      <point x="751" y="-277"/>
      <point x="553" y="-277" type="curve" smooth="yes"/>
      <point x="448" y="-277"/>
      <point x="334" y="-241"/>
      <point x="252" y="-185" type="curve"/>
      <point x="196" y="-322" type="line"/>
      <point x="300" y="-394"/>
      <point x="449" y="-427"/>
      <point x="555" y="-427" type="curve" smooth="yes"/>
      <point x="856" y="-427"/>
      <point x="1025" y="-245"/>
      <point x="1025" y="78" type="curve" smooth="yes"/>
    </contour>
    <contour>
      <point x="91" y="550" type="curve" smooth="yes"/>
      <point x="91" y="529" type="line"/>
      <point x="91" y="213"/>
      <point x="276" y="-20"/>
      <point x="536" y="-20" type="curve" smooth="yes"/>
      <point x="811" y="-20"/>
      <point x="945" y="177"/>
      <point x="975" y="491" type="curve"/>
      <point x="975" y="588" type="line"/>
      <point x="944" y="905"/>
      <point x="810" y="1102"/>
      <point x="538" y="1102" type="curve" smooth="yes"/>
      <point x="275" y="1102"/>
      <point x="91" y="880"/>
    </contour>
    <contour>
      <point x="278" y="529" type="curve" smooth="yes"/>
      <point x="278" y="550" type="line"/>
      <point x="278" y="773"/>
      <point x="383" y="947"/>
      <point x="584" y="947" type="curve" smooth="yes"/>
      <point x="770" y="947"/>
      <point x="854" y="807"/>
      <point x="884" y="660" type="curve"/>
      <point x="884" y="417" type="line"/>
      <point x="844" y="267"/>
      <point x="766" y="136"/>
      <point x="582" y="136" type="curve" smooth="yes"/>
      <point x="383" y="136"/>
      <point x="278" y="313"/>
    </contour>
  </outline>
</glyph>
<glyph name="gimelhebrew.001" format="2">
  <advance width="791.7"/>
  <anchor x="379" y="0" name="bottom"/>
  <anchor x="201" y="603" name="center"/>
  <anchor x="375" y="1178" name="top"/>
  <anchor x="45" y="1178" name="topleft"/>
  <outline>
    <contour>
      <point x="67" y="-8" type="curve" smooth="yes"/>
      <point x="273" y="-8"/>
      <point x="436" y="152"/>
      <point x="460" y="330" type="curve"/>
      <point x="467" y="330" type="line"/>
      <point x="536" y="0" type="line"/>
      <point x="711" y="0" type="line"/>
      <point x="629" y="390" type="line" smooth="yes"/>
      <point x="617" y="445"/>
      <point x="610" y="512"/>
      <point x="610" y="570" type="curve" smooth="yes"/>
      <point x="610" y="1178" type="line"/>
      <point x="161" y="1178" type="line"/>
      <point x="161" y="1029" type="line"/>
      <point x="427" y="1029" type="line"/>
      <point x="427" y="464" type="line"/>
      <point x="395" y="297"/>
      <point x="277" y="168"/>
      <point x="78" y="162" type="curve" smooth="yes"/>
      <point x="60" y="162"/>
      <point x="40" y="163"/>
      <point x="20" y="166" type="curve"/>
      <point x="20" y="-5" type="line"/>
      <point x="35" y="-8"/>
      <point x="52" y="-8"/>
    </contour>
  </outline>
</glyph>
<glyph name="k.alt" format="2">
  <advance width="1044.53"/>
  <anchor x="529" y="71" name="bottom"/>
  <anchor x="249" y="1289" name="cross"/>
  <anchor x="549" y="1611" name="top"/>
  <anchor x="1045" y="1611" name="top0315"/>
  <outline>
    <contour>
      <point x="333" y="0" type="line"/>
      <point x="333" y="1536" type="line"/>
      <point x="147" y="1536" type="line"/>
      <point x="147" y="0" type="line"/>
    </contour>
    <contour>
      <point x="550" y="502" type="line"/>
      <point x="993" y="1082" type="line"/>
      <point x="772" y="1082" type="line"/>
      <point x="459" y="654" type="line"/>
      <point x="245" y="654" type="line"/>
      <point x="267" y="502" type="line"/>
    </contour>
    <contour>
      <point x="454" y="514" type="line"/>
      <point x="825" y="0" type="line"/>
      <point x="1046" y="0" type="line"/>
      <point x="553" y="678" type="line"/>
    </contour>
  </outline>
</glyph>
<glyph name="nine.sup" format="2">
  <advance width="751.66"/>
  <outline>
    <contour>
      <point x="223" y="119" type="curve"/>
      <point x="209" y="119" type="line"/>
      <point x="209" y="-7" type="line"/>
      <point x="224" y="-7" type="line"/>
      <point x="525" y="-7"/>
      <point x="662" y="148"/>
      <point x="662" y="426" type="curve"/>
      <point x="662" y="478" type="line"/>
      <point x="662" y="680"/>
      <point x="552" y="800"/>
      <point x="366" y="800" type="curve" smooth="yes"/>
      <point x="186" y="800"/>
      <point x="73" y="672"/>
      <point x="73" y="519" type="curve"/>
      <point x="73" y="364"/>
      <point x="163" y="255"/>
      <point x="332" y="255" type="curve"/>
      <point x="466" y="255"/>
      <point x="560" y="352"/>
      <point x="563" y="445" type="curve"/>
      <point x="517" y="489" type="line"/>
      <point x="514" y="436"/>
      <point x="458" y="376"/>
      <point x="368" y="376" type="curve"/>
      <point x="277" y="376"/>
      <point x="231" y="439"/>
      <point x="231" y="519" type="curve"/>
      <point x="231" y="602"/>
      <point x="282" y="672"/>
      <point x="366" y="672" type="curve" smooth="yes"/>
      <point x="445" y="672"/>
      <point x="504" y="618"/>
      <point x="504" y="507" type="curve" smooth="yes"/>
      <point x="504" y="362" type="line" smooth="yes"/>
      <point x="504" y="197"/>
      <point x="421" y="119"/>
    </contour>
  </outline>
</glyph>
<glyph name="one.smcp" format="2">
  <advance width="1040.03"/>
  <outline>
    <contour>
      <point x="671" y="0" type="line"/>
      <point x="671" y="1168" type="line"/>
      <point x="644" y="1168" type="line"/>
      <point x="152" y="1004" type="line"/>
      <point x="152" y="846" type="line"/>
      <point x="483" y="945" type="line"/>
      <point x="483" y="0" type="line"/>
    </contour>
  </outline>
</glyph>
<glyph name="one.sup" format="2">
  <advance width="751.66"/>
  <outline>
    <contour>
      <point x="496" y="0" type="line"/>
      <point x="496" y="789" type="line"/>
      <point x="478" y="789" type="line"/>
      <point x="123" y="673" type="line"/>
      <point x="123" y="545" type="line"/>
      <point x="338" y="603" type="line"/>
      <point x="338" y="0" type="line"/>
    </contour>
  </outline>
</glyph>
<glyph name="q.ss06" format="2">
  <advance width="1180.88"/>
  <outline>
    <contour>
      <point x="838" y="874" type="line"/>
      <point x="838" y="-416" type="line"/>
      <point x="1025" y="-416" type="line"/>
      <point x="1025" y="1082" type="line"/>
      <point x="863" y="1082" type="line"/>
    </contour>
    <contour>
      <point x="91" y="549" type="curve" smooth="yes"/>
      <point x="91" y="528" type="line"/>
      <point x="91" y="212"/>
      <point x="273" y="-20"/>
      <point x="541" y="-20" type="curve" smooth="yes"/>
      <point x="816" y="-20"/>
      <point x="955" y="177"/>
      <point x="984" y="491" type="curve"/>
      <point x="984" y="588" type="line"/>
      <point x="954" y="905"/>
      <point x="815" y="1102"/>
      <point x="543" y="1102" type="curve" smooth="yes"/>
      <point x="271" y="1102"/>
      <point x="91" y="879"/>
    </contour>
    <contour>
      <point x="278" y="528" type="curve" smooth="yes"/>
      <point x="278" y="549" type="line"/>
      <point x="278" y="773"/>
      <point x="387" y="952"/>
      <point x="589" y="952" type="curve" smooth="yes"/>
      <point x="774" y="952"/>
      <point x="864" y="806"/>
      <point x="895" y="660" type="curve"/>
      <point x="895" y="417" type="line"/>
      <point x="854" y="267"/>
      <point x="770" y="130"/>
      <point x="587" y="130" type="curve" smooth="yes"/>
      <point x="387" y="130"/>
      <point x="278" y="312"/>
    </contour>
  </outline>
</glyph>
<glyph name="seven.smcp" format="2">
  <advance width="1040.03"/>
  <outline>
    <contour>
      <point x="961" y="1061" type="line"/>
      <point x="961" y="1165" type="line"/>
      <point x="66" y="1165" type="line"/>
      <point x="66" y="1014" type="line"/>
      <point x="763" y="1014" type="line"/>
      <point x="229" y="0" type="line"/>
      <point x="426" y="0" type="line"/>
    </contour>
  </outline>
</glyph>
<glyph name="six.smcp" format="2">
  <advance width="1039.12"/>
  <outline>
    <contour>
      <point x="769" y="1172" type="line"/>
      <point x="749" y="1172" type="line"/>
      <point x="265" y="1172"/>
      <point x="114" y="880"/>
      <point x="114" y="522" type="curve"/>
      <point x="114" y="438" type="line"/>
      <point x="114" y="191"/>
      <point x="261" y="-16"/>
      <point x="543" y="-16" type="curve" smooth="yes"/>
      <point x="808" y="-16"/>
      <point x="956" y="158"/>
      <point x="956" y="382" type="curve"/>
      <point x="956" y="587"/>
      <point x="840" y="771"/>
      <point x="581" y="771" type="curve"/>
      <point x="383" y="771"/>
      <point x="247" y="628"/>
      <point x="231" y="513" type="curve"/>
      <point x="283" y="413" type="line"/>
      <point x="290" y="525"/>
      <point x="407" y="621"/>
      <point x="542" y="621" type="curve"/>
      <point x="695" y="621"/>
      <point x="772" y="511"/>
      <point x="772" y="377" type="curve" smooth="yes"/>
      <point x="772" y="238"/>
      <point x="686" y="135"/>
      <point x="541" y="135" type="curve" smooth="yes"/>
      <point x="413" y="135"/>
      <point x="301" y="240"/>
      <point x="301" y="438" type="curve" smooth="yes"/>
      <point x="301" y="606" type="line" smooth="yes"/>
      <point x="301" y="837"/>
      <point x="420" y="1017"/>
      <point x="754" y="1017" type="curve"/>
      <point x="769" y="1017" type="line"/>
    </contour>
  </outline>
</glyph>
<glyph name="three.smcp" format="2">
  <advance width="1040.03"/>
  <outline>
    <contour>
      <point x="475" y="667" type="curve" smooth="yes"/>
      <point x="352" y="667" type="line"/>
      <point x="352" y="563" type="line"/>
      <point x="509" y="563" type="line"/>
      <point x="788" y="563"/>
      <point x="907" y="715"/>
      <point x="907" y="851" type="curve"/>
      <point x="907" y="1067"/>
      <point x="743" y="1181"/>
      <point x="501" y="1181" type="curve" smooth="yes"/>
      <point x="260" y="1181"/>
      <point x="91" y="1047"/>
      <point x="91" y="862" type="curve"/>
      <point x="278" y="862" type="line"/>
      <point x="278" y="965"/>
      <point x="371" y="1030"/>
      <point x="502" y="1030" type="curve" smooth="yes"/>
      <point x="649" y="1030"/>
      <point x="720" y="961"/>
      <point x="720" y="851" type="curve"/>
      <point x="720" y="744"/>
      <point x="640" y="667"/>
    </contour>
    <contour>
      <point x="352" y="624" type="line"/>
      <point x="352" y="520" type="line"/>
      <point x="475" y="520" type="line" smooth="yes"/>
      <point x="637" y="520"/>
      <point x="740" y="461"/>
      <point x="740" y="324" type="curve" smooth="yes"/>
      <point x="740" y="204"/>
      <point x="650" y="134"/>
      <point x="502" y="134" type="curve" smooth="yes"/>
      <point x="359" y="134"/>
      <point x="265" y="208"/>
      <point x="265" y="314" type="curve"/>
      <point x="78" y="314" type="line"/>
      <point x="78" y="94"/>
      <point x="275" y="-16"/>
      <point x="501" y="-16" type="curve" smooth="yes"/>
      <point x="744" y="-16"/>
      <point x="928" y="107"/>
      <point x="928" y="325" type="curve" smooth="yes"/>
      <point x="928" y="485"/>
      <point x="832" y="624"/>
      <point x="509" y="624" type="curve" smooth="yes"/>
    </contour>
  </outline>
</glyph>
<glyph name="three.sup" format="2">
  <advance width="751.66"/>
  <outline>
    <contour>
      <point x="350" y="459" type="curve" smooth="yes"/>
      <point x="265" y="459" type="line"/>
      <point x="265" y="382" type="line"/>
      <point x="377" y="382" type="line"/>
      <point x="553" y="382"/>
      <point x="653" y="470"/>
      <point x="653" y="576" type="curve"/>
      <point x="653" y="722"/>
      <point x="534" y="800"/>
      <point x="360" y="800" type="curve" smooth="yes"/>
      <point x="200" y="800"/>
      <point x="73" y="715"/>
      <point x="73" y="579" type="curve"/>
      <point x="232" y="579" type="line"/>
      <point x="232" y="637"/>
      <point x="288" y="673"/>
      <point x="363" y="673" type="curve" smooth="yes"/>
      <point x="455" y="673"/>
      <point x="495" y="628"/>
      <point x="495" y="569" type="curve"/>
      <point x="495" y="504"/>
      <point x="447" y="459"/>
    </contour>
    <contour>
      <point x="265" y="421" type="line"/>
      <point x="265" y="344" type="line"/>
      <point x="350" y="344" type="line" smooth="yes"/>
      <point x="448" y="344"/>
      <point x="508" y="312"/>
      <point x="508" y="228" type="curve" smooth="yes"/>
      <point x="508" y="161"/>
      <point x="459" y="116"/>
      <point x="366" y="116" type="curve" smooth="yes"/>
      <point x="279" y="116"/>
      <point x="221" y="162"/>
      <point x="221" y="222" type="curve"/>
      <point x="63" y="222" type="line"/>
      <point x="63" y="60"/>
      <point x="210" y="-11"/>
      <point x="361" y="-11" type="curve" smooth="yes"/>
      <point x="535" y="-11"/>
      <point x="667" y="73"/>
      <point x="667" y="220" type="curve" smooth="yes"/>
      <point x="667" y="348"/>
      <point x="577" y="421"/>
      <point x="377" y="421" type="curve" smooth="yes"/>
    </contour>
  </outline>
</glyph>
<glyph name="two.smcp" format="2">
  <advance width="1040.03"/>
  <outline>
    <contour>
      <point x="971" y="0" type="line"/>
      <point x="971" y="150" type="line"/>
      <point x="334" y="150" type="line"/>
      <point x="661" y="431" type="line" smooth="yes"/>
      <point x="803" y="579"/>
      <point x="915" y="700"/>
      <point x="915" y="847" type="curve" smooth="yes"/>
      <point x="915" y="1045"/>
      <point x="764" y="1181"/>
      <point x="518" y="1181" type="curve" smooth="yes"/>
      <point x="237" y="1181"/>
      <point x="78" y="1014"/>
      <point x="78" y="810" type="curve"/>
      <point x="266" y="810" type="line"/>
      <point x="266" y="942"/>
      <point x="343" y="1030"/>
      <point x="518" y="1030" type="curve" smooth="yes"/>
      <point x="650" y="1030"/>
      <point x="728" y="949"/>
      <point x="728" y="842" type="curve" smooth="yes"/>
      <point x="728" y="762"/>
      <point x="684" y="684"/>
      <point x="532" y="544" type="curve" smooth="yes"/>
      <point x="105" y="130" type="line"/>
      <point x="105" y="0" type="line"/>
    </contour>
  </outline>
</glyph>
<glyph name="zero.smcp" format="2">
  <advance width="1040.03"/>
  <outline>
    <contour>
      <point x="940" y="497" type="curve"/>
      <point x="940" y="671" type="line"/>
      <point x="940" y="1020"/>
      <point x="775" y="1181"/>
      <point x="519" y="1181" type="curve" smooth="yes"/>
      <point x="265" y="1181"/>
      <point x="99" y="1020"/>
      <point x="99" y="671" type="curve"/>
      <point x="99" y="497" type="line"/>
      <point x="99" y="148"/>
      <point x="267" y="-16"/>
      <point x="521" y="-16" type="curve" smooth="yes"/>
      <point x="776" y="-16"/>
      <point x="940" y="148"/>
    </contour>
    <contour>
      <point x="752" y="699" type="curve"/>
      <point x="752" y="471" type="line"/>
      <point x="752" y="249"/>
      <point x="673" y="134"/>
      <point x="521" y="134" type="curve" smooth="yes"/>
      <point x="371" y="134"/>
      <point x="286" y="249"/>
      <point x="286" y="471" type="curve" smooth="yes"/>
      <point x="286" y="699" type="line" smooth="yes"/>
      <point x="286" y="920"/>
      <point x="369" y="1030"/>
      <point x="519" y="1030" type="curve" smooth="yes"/>
      <point x="671" y="1030"/>
      <point x="752" y="920"/>
    </contour>
  </outline>
</glyph>
